<?xml version="1.0" standalone="no"?>
<!DOCTYPE svg PUBLIC "-//W3C//DTD SVG 1.1//EN" "http://www.w3.org/Graphics/SVG/1.1/DTD/svg11.dtd" >
<svg xmlns="http://www.w3.org/2000/svg">
<metadata>
Created by FontForge 20120731 at Fri Jun  3 16:03:26 2016
 By admin
</metadata>
<defs>
<font id="iconfont" horiz-adv-x="1024" >
  <font-face 
    font-family="iconfont"
    font-weight="500"
    font-stretch="normal"
    units-per-em="1024"
    panose-1="2 0 6 3 0 0 0 0 0 0"
    ascent="896"
    descent="-128"
    x-height="792"
    bbox="34 -31 958 792"
    underline-thickness="50"
    underline-position="-100"
    unicode-range="U+0078-E695"
  />
<missing-glyph horiz-adv-x="374" 
d="M34 0v682h272v-682h-272zM68 34h204v614h-204v-614z" />
    <glyph glyph-name=".notdef" horiz-adv-x="374" 
d="M34 0v682h272v-682h-272zM68 34h204v614h-204v-614z" />
    <glyph glyph-name=".null" horiz-adv-x="0" 
 />
    <glyph glyph-name="nonmarkingreturn" horiz-adv-x="341" 
 />
    <glyph glyph-name="x" unicode="x" horiz-adv-x="1001" 
d="M281 543q-27 -1 -53 -1h-83q-18 0 -36.5 -6t-32.5 -18.5t-23 -32t-9 -45.5v-76h912v41q0 16 -0.5 30t-0.5 18q0 13 -5 29t-17 29.5t-31.5 22.5t-49.5 9h-133v-97h-438v97zM955 310v-52q0 -23 0.5 -52t0.5 -58t-10.5 -47.5t-26 -30t-33 -16t-31.5 -4.5q-14 -1 -29.5 -0.5
t-29.5 0.5h-32l-45 128h-439l-44 -128h-29h-34q-20 0 -45 1q-25 0 -41 9.5t-25.5 23t-13.5 29.5t-4 30v167h911zM163 247q-12 0 -21 -8.5t-9 -21.5t9 -21.5t21 -8.5q13 0 22 8.5t9 21.5t-9 21.5t-22 8.5zM316 123q-8 -26 -14 -48q-5 -19 -10.5 -37t-7.5 -25t-3 -15t1 -14.5
t9.5 -10.5t21.5 -4h37h67h81h80h64h36q23 0 34 12t2 38q-5 13 -9.5 30.5t-9.5 34.5q-5 19 -11 39h-368zM336 498v228q0 11 2.5 23t10 21.5t20.5 15.5t34 6h188q31 0 51.5 -14.5t20.5 -52.5v-227h-327z" />
    <glyph glyph-name="uniE600" unicode="&#xe600;" 
d="M162 216v113q0 7 7 11q52 33 163.5 102t169.5 105q10 7 26 -2q28 -18 220 -138q90 -56 104 -64q10 -6 10 -18v-107q-15 8 -15 9q-244 151 -322 200q-12 8 -24 0q-72 -45 -321 -200q-1 0 -18 -11z" />
    <glyph glyph-name="uniE601" unicode="&#xe601;" 
d="M862 551v-113q0 -7 -7 -11q-53 -33 -164 -102t-169 -105q-10 -7 -26 3q-28 17 -220 137q-90 56 -104 64q-10 6 -10 18v107q15 -8 15 -9q244 -151 322 -200q12 -8 24 0q72 45 321 200q1 0 18 11z" />
    <glyph glyph-name="uniE602" unicode="&#xe602;" 
d="M669 35zM509 397h-297q-13 0 -17.5 4.5t-4.5 17.5q1 143 0 294q0 12 4.5 16.5t16.5 4.5h596q12 0 16.5 -4.5t4.5 -16.5q-1 -150 0 -296q0 -12 -4.5 -16t-15.5 -4h-299zM209 716v-300h600v300h-600zM368 156q16 -17 24 -26q3 3 12 11t13 12q42 -21 46 -24q13 -8 18 -19
q7 -19 17 -59q4 -16 -14 -16h-182q-20 0 -15 18q14 44 20 60q3 8 14 15q5 4 48 27zM606 155q4 -4 11 -12t12 -13q5 4 13.5 12t11.5 11q43 -22 48 -25q11 -6 14 -15q6 -15 19 -60q5 -18 -14 -18h-183q-18 0 -14 16q7 23 21 66q1 5 7 8q9 5 55 29zM728 240q3 -4 9.5 -11
t9.5 -11q3 3 8.5 7.5t9.5 8.5t9 8q6 -3 19.5 -10.5t23 -13.5t15.5 -14q24 -34 21 -81h-64q-44 0 -57.5 4t-49.5 29q18 59 20 66q8 22 26 17v1zM169 123q-1 34 23 85q1 3 12 9q5 3 46 24q4 -3 12.5 -11t11.5 -12q11 10 26 24q20 -10 22 -32q2 -8 4.5 -16.5t7 -19.5t6.5 -16
q-37 -26 -48 -34q-1 -1 -5 -1h-118zM511 375q30 0 45 -17t12 -48q-4 -37 -24 -57q-16 -16 -34.5 -16t-33.5 17q-33 39 -18 90q9 31 53 31zM728 239q-42 34 -37 90q4 43 52 46q53 3 61 -41q7 -42 -19 -76q-20 -27 -57 -18v-1zM369 155q-37 32 -33 86q4 41 45 45t58.5 -16.5
t8.5 -59.5q-3 -12 -7 -22q-22 -48 -73 -32zM332 316q-3 -48 -34 -70q-28 -20 -54 4q-18 15 -24.5 45t2.5 52q7 17 26.5 24t44.5 2q40 -8 39 -57zM607 154q-37 31 -34 84q2 44 45 48q39 3 55.5 -14t12.5 -54q-2 -15 -9 -30q-21 -48 -71 -33zM484 244q18 -18 27 -26q6 6 26 24
q19 -10 22 -31q1 -9 4 -17.5t7.5 -19.5t6.5 -16q-43 -30 -48 -34q-7 -3 -21 0t-22 8q-3 2 -40 24q17 59 20 67q1 3 4 6.5t7.5 7.5t6.5 7zM511.5 461q-43.5 0 -74 31t-30.5 74t31 73.5t74.5 30.5t74 -30.5t30.5 -74t-31 -74t-74.5 -30.5zM487 615v-103q43 29 79 52
q-50 29 -79 51z" />
    <glyph glyph-name="uniE603" unicode="&#xe603;" 
d="M249 414h5h596q26 0 30 -24q3 -13 -3.5 -23.5t-19.5 -12.5q-2 -1 -8 -1h-594h-7q4 -4 4 -5q153 -152 199 -198q14 -14 8 -31q-6 -16 -21.5 -20.5t-29.5 8.5q-46 46 -243 244q-2 2 -6 5t-5 5q-10 9 -10 22t9 22q33 33 121 120.5t136 135.5q13 13 28 8q17 -5 22.5 -20.5
t-8.5 -30.5q-21 -22 -200 -200l-3 -3v-1z" />
    <glyph glyph-name="uniE604" unicode="&#xe604;" 
d="M864 72l-145 145q73 87 73 201q0 131 -92.5 223.5t-223 92.5t-223 -92.5t-92.5 -223t92.5 -223t223.5 -92.5q122 0 212 83l145 -144q6 -7 15 -7t15 7q6 6 6 15t-6 15zM476.5 144q-113.5 0 -194 80.5t-80.5 194t80.5 194t194 80.5t194 -80.5t80.5 -194t-80.5 -194
t-194 -80.5z" />
    <glyph glyph-name="uniE605" unicode="&#xe605;" 
d="M278 240v28v443q0 16 3 19.5t19 3.5h440q15 0 18 -3.5t3 -17.5v-396q0 -1 0.5 -5t0 -5.5t-2.5 -3t-7 -1.5q-7 1 -7 8v6v5v379q0 9 -3 12.5t-12 3.5q-208 -1 -420 0q-9 0 -12 -3.5t-3 -12.5v-532q0 -10 3 -13.5t13 -3.5q76 1 270 1h3t4.5 0.5t3.5 -0.5t3 -3q3 -6 1 -11
q-1 -3 -2.5 -3.5t-5 0t-4.5 0.5h-267q-29 0 -35 4.5t-11 33.5q-11 57 -23 121t-26.5 142t-23.5 121q-6 33 -9 45q-3 16 11 18q5 1 11 2t12.5 2.5t10.5 2.5q11 2 13 -8q0 -4 -1 -5.5t-2 -2t-4 -1.5h-3q-21 -5 -24 -9.5t0 -25.5q6 -35 52 -278q0 -2 10 -57h2h1zM835 83
q-33 -48 -95 -48.5t-100 45.5q-27 32 -30 73t18.5 76.5t59.5 53t78 9.5q24 -4 38 -12q15 -9 9 -20q-7 -14 -23 -5q-39 19 -77 10q-47 -11 -71 -53t-9 -88q15 -49 61 -70t94 -2q20 8 45 32h1l1 1v-2zM414 408h68h2q9 1 9.5 -7t-9.5 -7h-2h-138h-3q-9 -1 -9 7t10 7h1h71z
M414 255h32h37q10 0 10 -7q1 -8 -9 -8h-142q-10 0 -10 7q0 8 10 8h1h71zM416 477h69h2q8 1 8 -6q1 -8 -10 -8h-140h-6q-2 0 -3.5 2t-1.5 6q1 7 9 6h2h71zM622 463h-69q-4 -1 -6 -0.5t-3.5 2.5t-1.5 6q1 7 9 6h2h140h2q8 1 9 -6q0 -8 -11 -8h-71zM623 394h-69h-3q-9 -1 -9 6
q0 8 11 8h71h69q10 0 11 -7q0 -8 -10 -7h-1h-70zM411 318h-66h-3q-10 -1 -10 7t9 7h3h138h2q10 1 9 -7q0 -8 -9 -7h-2h-71zM622 332h71h2q9 1 9 -7q-1 -7 -10 -7h-72h-70q-10 0 -10 7q0 8 9 7h2h69zM629 255q-5 -16 -22 -15h-54q-10 0 -10 7q-1 8 10 8h76zM707 639
q0 15 -15 15q-176 -1 -347 0q-8 0 -11 -3.5t-3 -11.5q1 -57 0 -96q-1 -10 3 -13t14 -3h170h174q8 0 11.5 3t3.5 12q-1 45 0 97zM447 562q0 -9 -5 -10q-6 -1 -11 6q-4 6 -30 48v-41q0 -13 -6 -13t-6 12v53q0 9 5 11q7 2 12 -6q3 -5 29 -46v40q0 11 6 11q6 1 6 -10
q1 -19 0 -55zM485 551h-7h-7q-10 0 -10 11v28v9q0 24 4.5 28t28.5 1q9 0 9 -5t-9 -6h-13q-7 0 -7 -10t7 -10q10 1 15 0q6 0 6 -6q-1 -4 -6 -5h-11q-12 1 -12 -12q0 -11 12 -11q1 0 7.5 0.5t9 -0.5t2.5 -6q0 -4 -3 -5.5t-8.5 -0.5t-7.5 0zM599 615q-4 -15 -15 -53
q-1 -3 -1.5 -5t-3 -3.5t-5.5 -1.5q-6 0 -8 11q-7 26 -12 37q-9 -34 -11 -39q-2 -10 -9 -9q-6 0 -8 9q-3 10 -8 29t-7 27.5t3 10.5q7 2 10 -7q1 -5 10 -42h2q10 35 11 39q3 10 9 10q7 0 9 -10q6 -25 11 -39q10 35 11 39q3 12 10 9q3 0 3.5 -2t0.5 -3t-1 -4zM652 569.5
q-3 -14.5 -19 -18.5q-9 -2 -21 2q-7 2 -6 8t7 4l2 -1q8 -2 13 -2q9 1 11 9q1 7 -6 11l-7 4q-5 2 -8 3q-20 12 -8 30q4 7 16.5 10t19.5 -2q3 -3 2 -6q-2 -5 -11 -3q-15 2 -17 -8q-1 -2 0 -4.5t2.5 -3.5t4.5 -2.5t4 -2.5q1 0 4.5 -2t4.5 -2q15 -9 12 -23.5zM758 97
q34 19 46 39.5t6 50.5q-4 22 -20 36t-40 16q-22 2 -41.5 -9t-28.5 -32q-21 -52 29 -93q-14 -4 -17 -18q15 15 39 9q10 -2 33 -11q22 -9 37 1t17 34q-16 -21 -28 -25t-32 2zM705 135q-18 29 -5 60q14 33 46 32q14 -1 26 -10.5t17 -24.5q4 -11 4 -23q0 -19 -11 -35
q-14 -21 -38.5 -21t-38.5 22z" />
    <glyph glyph-name="uniE606" unicode="&#xe606;" 
d="M491 327v268q0 18 3.5 21t20.5 3h399q16 0 19.5 -3.5t3.5 -18.5q0 -322 -1 -465q0 -11 -8 -20q-31 -33 -71 -71q-7 -7 -17 -7q-54 -1 -164 -1h-165q-11 0 -15.5 5.5t-4.5 17.5v271zM913 122v473h-397v-538h332v35q1 25 2.5 27t26.5 3h36zM398 577h23v-198h-23v198z
M429 372v-17h-254q0 1 -0.5 7t-0.5 10h255zM376 379h-24v153h24v-153zM308 379v108h23v-108h-23zM263 438h22v-59h-22v59zM215 415h22v-36q-10 -1 -22 -1v37zM632 267h-23v199h23v-199zM854 257v-16h-253q-1 2 -1 7v9h254zM654 268v153h23v-153h-23zM698 376h23v-108h-23
v108zM767 327v-59h-23v59h23zM815 268h-23v35h23v-35zM571 721v2q0 5 -3.5 8.5t-8.5 3.5h-456h-2h-2q-5 0 -8.5 -3.5t-3.5 -8.5v-587q0 -5 3.5 -8.5t8.5 -3.5h1h331h1h1q5 0 8.5 3.5t3.5 8.5v110v2q-1 -1 -3 -4q-3 -7 -7 -11l-1 -1q-5 -6 -11 -12l-2 -2v-69h-310v562h436
v-67h24v77zM671 509q5 6 10 11q71 -102 142 -138l-11 -11q-35 18 -70.5 52.5t-70.5 85.5zM226 482q87 49 152 137q-5 5 -11 10q-64 -85 -149 -134q4 -7 8 -13zM228 488l-20 33l-34 -60l69 1l-7 13zM860 353l-68 1l35 59z" />
    <glyph glyph-name="uniE607" unicode="&#xe607;" 
d="M347 643q-6 5 -11 -1l-39 -44l-13 14q-6 6 -12 0q-5 -5 0 -11l17 -18q1 -1 2 -1q0 -1 1 -2q6 -5 11 1l45 51q5 6 -1 11zM347 492q-6 5 -11 -1l-39 -44l-13 14q-6 6 -12 1q-5 -6 0 -12l17 -18q1 0 2 -1q0 -1 1 -2q6 -5 11 1l45 51q5 6 -1 11zM347 346q-6 5 -11 -1l-39 -45
l-13 15q-6 5 -12 0q-5 -5 0 -11l17 -18l2 -2q0 -1 1 -1q6 -5 11 0l45 51q5 6 -1 12zM489 145q-1 -1 -13 -9l-18 -12q-8 -7 -18 0q-6 5 -19 13.5t-19 12.5q-12 9 -24 0q-6 -4 -19 -12.5t-19 -13.5q-10 -7 -20 1q-5 4 -17.5 12t-19.5 13q-13 9 -25 0q-3 -2 -36 -25l-1 10v564
q0 9 3 11t12 2h405q10 0 13.5 -3t3.5 -14v-190q0 10 10 10q9 0 10 -9v206q0 14 -3.5 17.5t-17.5 3.5h-435q-14 0 -17.5 -3.5t-3.5 -17.5v-238v-357q0 -1 -0.5 -4t-0.5 -4.5t0.5 -4t2 -4t4.5 -2.5q5 -3 17 5q28 18 38 26q9 6 17 0q6 -4 18.5 -12.5t18.5 -12.5q14 -11 28 -1
q6 5 19 13.5t19 12.5q8 6 16 0q3 -2 40 -27q11 -7 18 -3q10 7 45 29q3 3 3.5 5.5t-2 5.5t-3.5 4q-2 7 -10 2zM721 186q-28 15 -30 16q-12 7 -24 0q-26 -15 -51 -1q-18 9 -32 -1l-14 -7q-12 -6 -15 -13q-11 -22 -24 -53q-4 -9 0 -14.5t13 -5.5h119q8 0 8 6q-1 51 50 73z
M642 327q-51 1 -52 -55q-1 -19 8 -34q15 -27 41 -27q26 -1 42 26q12 21 6 52q-7 37 -45 38zM611 394q0 10 -15 10h-208q-15 0 -16 -9q0 -5 2.5 -7.5t5 -3t8.5 -0.5h34h34h35h106q14 0 14 10zM387 444h209q15 0 15 10t-15 10h-104h-105q-15 0 -15 -10t15 -10zM789 121.5
q0 22.5 -15.5 38.5t-38 15.5t-38 -16t-15.5 -38.5q0 -22 15.5 -37t37.5 -16q22 0 38 15.5t16 38zM736 83q-16 0 -27.5 11.5t-11.5 27.5t11.5 27.5t27 11.5t27 -11.5t11.5 -27.5t-11 -27.5t-27 -11.5zM589 345h-73h-130q-17 0 -13 -14q2 -6 15 -6q142 0 160 -1q27 -1 41 21z
M595 642h-206h-2q-14 1 -14 -9t14 -10h2h104h102h2q15 0 15 10t-14 9h-3zM595 583h-206h-2q-14 0 -14 -10t14 -10h2h102h104h2q15 0 15 10t-15 10h-2zM387 504h209q15 0 16 9q0 5 -3 7.5t-5 2.5h-8h-104h-105q-15 0 -14.5 -9.5t14.5 -9.5zM537 285h-149q-6 0 -8.5 -0.5
t-5 -3t-2.5 -7.5q1 -9 16 -9h75h74q15 0 15 10t-15 10zM668 515q-10 0 -10 -10v-9v-71v-56q0 -4 3 -7t7 -3t7 3t3 7v136v1q-1 9 -10 9zM789 87l42 -39l-13 -14l-42 39zM327 639h-62q-9 0 -9 -8v-60q0 -8 9 -8h62q8 0 8 8v60q0 8 -8 8zM326 578q0 -6 -5 -6h-50q-5 0 -5 6v46
q0 5 5 5h50q5 0 5 -5v-46zM327 486h-62q-9 0 -9 -8v-60q0 -8 9 -8h62q8 0 8 8v60q0 8 -8 8zM326 425q0 -5 -5 -5h-50q-5 0 -5 5v46q0 6 5 6h50q5 0 5 -6v-46zM327 343h-62q-9 0 -9 -8v-60q0 -8 9 -8h62q8 0 8 8v60q0 8 -8 8zM326 282q0 -6 -5 -6h-50q-5 0 -5 6v46q0 5 5 5
h50q5 0 5 -5v-46z" />
    <glyph glyph-name="uniE608" unicode="&#xe608;" 
d="M511 33h-280q-23 0 -30.5 8.5t-4.5 30.5q7 52 19 106q5 26 29 33q84 26 136 43q14 4 22 -7q39 -54 107 -54.5t108 52.5q10 13 27 8q51 -17 131 -41q27 -9 32 -35q3 -15 9.5 -50t9.5 -55q3 -21 -5 -30t-30 -9h-280zM447 554q-12 85 -15 105q-1 8 -1 12q-3 37 4 46.5
t43 16.5q49 8 95 -8q21 -7 20 -29q-1 -20 -3.5 -41t-6.5 -48.5t-6 -40.5q-1 -8 -1 -13q19 47 33 118q3 15 5 16t13 -9q61 -51 71 -128q2 -9 9 -19q8 -13 9 -31t-1 -33q0 -5 -9 -5h-31q-16 1 -21 -8q-3 -4 -16 -4h-253q-10 0 -10 1q-7 8 -15 10.5t-22.5 1.5t-17.5 -1
q-8 0 -11 3t-3 11q1 4 1 15.5t0.5 17.5t4 14t9.5 14q1 2 3 14q12 84 85 138q21 -96 38 -136zM340 426q1 3 0.5 6.5t0 6.5t4.5 5t14 -7q7 -5 22 -5h261q16 0 23.5 8t15.5 3q4 -2 3 -14q-2 -21 -4 -31.5t-9 -26.5t-18 -27q-2 -1 -5 -11q-25 -67 -92 -103q-48 -25 -96 5
q-63 39 -84 101q-3 7 -5 9q-11 10 -18 26t-8 24t-5 31z" />
    <glyph glyph-name="uniE609" unicode="&#xe609;" 
d="M830 236l-5 -13q-20 -55 -57 -88q-59 -50 -144 -44q-27 2 -87 20q-2 1 -2 2q32 5 57 13q91 32 148.5 110.5t60.5 177.5q2 69 -19 128q-37 107 -132 158q-86 46 -193 34q-99 -11 -171.5 -80t-88.5 -167q-3 -23 -5 -61q-2 -69 12 -114q34 -102 132 -159q1 -1 25 -13h-20
q-63 -3 -73 -74q0 -6 4 -7q2 -1 4 3q0 1 1 2q14 25 39 36q39 18 93 9q63 -10 153 -47q5 -2 17.5 -8t22 -9.5t19.5 -5.5q52 -9 86 -2q55 14 89 67q32 49 35 121q0 7 -1 11zM424 265q-6 4 -8 -3q-4 -20 -28 -18q-14 1 -16.5 3t-4.5 14q-12 69 -20 110q-2 9 7 10q16 3 30 8
q9 2 12 -6q27 -58 81 -80q36 -15 70 -4q14 4 21 14q14 20 -3 36q-9 10 -31 18q-16 6 -46.5 14.5t-37.5 10.5q-30 10 -55 25q-41 25 -42 74.5t39 77.5q77 52 164 9q9 -4 11 3q4 11 17 10q5 -1 19 0q6 0 8 -6q13 -53 27 -106q1 -5 -4 -7l-36 -10q-6 -2 -10 4q-20 35 -45 53
q-40 28 -83 19q-24 -5 -27 -23q-2 -16 19 -30q8 -5 38 -14q10 -4 30.5 -9.5t36.5 -10.5t29 -11q38 -17 54 -44q18 -32 10 -68t-39 -60q-39 -30 -98 -30q-46 -1 -89 27z" />
    <glyph glyph-name="uniE60A" unicode="&#xe60a;" 
d="M675 495q-4 26 -31 29q-14 1 -28 0q-22 -2 -41.5 9.5t-29.5 30t-11 40.5t13 41q7 10 14 25t2 23q-17 32 -60 40q-6 1 -11 0.5t-9.5 -5.5t-6 -6.5t-6.5 -9.5l-4 -9q-11 -17 -14 -22q-14 -19 -37 -25q-64 -17 -98 45q-16 28 -30.5 32t-41.5 -13q-8 -5 -12 -8
q-25 -20 -10 -47q1 -3 8 -15t10 -19q15 -34 -5 -68t-56 -38q-8 -1 -23 -1h-19q-24 -1 -29 -19q-10 -31 0 -61q5 -18 24 -19h22q47 1 70 -25q40 -46 7 -101q-18 -31 -13.5 -46t37.5 -31l15 -6q21 -7 34 11q9 14 17 30q13 25 40.5 34.5t55.5 0t41 -34.5q9 -18 17 -29
q16 -22 43 -8q2 0 10.5 4t11 5.5t8.5 6t8.5 8t5 9.5t2.5 13t-9 23q-13 22 -16 27q-14 32 4 66.5t54 40.5q9 1 23 1t22 1q28 1 32 28q4 20 0 42zM392 360q-48 0 -81.5 33t-33.5 80.5t33 81t81 33.5q47 0 80 -33t33.5 -80.5t-32.5 -81t-80 -33.5zM920 269q-1 14 -8 27
q-9 18 -27 13q-29 -8 -34 -8q-27 -1 -43 22t-9 51q6 21 1.5 30t-24.5 14q-20 6 -29 0.5t-13 -26.5q-1 -4 -2 -6q-8 -32 -37.5 -41t-54.5 14q-2 2 -7 6.5t-8 7.5q-10 9 -24 2q-23 -11 -26 -28.5t15 -34.5q24 -22 20 -49q-6 -38 -47 -49q-20 -5 -25 -14t1 -28.5t15 -24t29 1.5
q36 12 60 -10q25 -24 14 -63q0 -1 -1 -4.5t-1.5 -5t-1 -4.5t0 -5t1.5 -4t3 -4q18 -18 46 -14q4 0 7 1.5t4.5 3t3 5t2 5t1.5 6t1 5.5q3 10 3 11q9 30 37.5 38t51.5 -12l8 -8l8 -8q11 -9 25 -3q23 11 26 28.5t-15 35.5q-1 0 -1.5 1t-1.5 1q-24 24 -16.5 53.5t39.5 39.5
q14 4 16 4q19 6 17 27zM729 149q-32 -1 -55.5 22.5t-23.5 55.5t23 55t55 24q32 0 55.5 -23t23.5 -56q0 -32 -22.5 -55t-55.5 -23z" />
    <glyph glyph-name="uniE60B" unicode="&#xe60b;" 
d="M787 48q-42 -18 -81 -11.5t-69.5 38t-35.5 75.5q-4 29 4 51q3 10 -5 18q-138 137 -254 254q-8 8 -19 5q-55 -16 -103.5 14t-59.5 85q-9 45 9 81q2 0 4 -1t3.5 -3t2.5 -3l35 -35q26 -26 40 -39q15 -16 33 -17t32 13q14 13 13 31.5t-16 33.5l-84 84q63 26 117 -2
q41 -21 59.5 -64t5.5 -87q-3 -11 6 -19q149 -149 252 -253q9 -8 22 -5q78 19 131 -39q51 -57 26 -130q-3 -9 -5.5 -10t-10.5 6q-24 25 -76 76q-21 21 -47 11q-25 -9 -28 -35q-3 -22 16 -41q9 -9 83 -82zM162 102q-3 23 17 44q36 35 105.5 104.5t103.5 104.5q7 7 14 0
q35 -36 80 -80q7 -6 0 -13l-92 -92q-76 -76 -118 -117q-25 -25 -57.5 -19.5t-47.5 36.5q-5 11 -5 32zM605 432l-7 6q-32 32 -33 32q-8 7 1 16l35 35q27 27 42 41q37 35 49 68q23 63 86 86q4 1 17.5 9t20.5 8q7 -1 17.5 -13.5t13.5 -14.5q19 -14 6 -35q-9 -15 -34 -65
q-6 -12 -17 -16q-85 -35 -150 -110l-40 -40q0 -1 -7 -7z" />
    <glyph glyph-name="uniE60C" unicode="&#xe60c;" 
d="M470.5 733q-77.5 0 -132 -54.5t-54.5 -132t54.5 -132.5t132 -55t132.5 55t55 132.5t-55 132t-132.5 54.5zM471.5 503q-17.5 0 -30 12.5t-12.5 30t12.5 30t30 12.5t30 -12.5t12.5 -30t-12.5 -30t-30 -12.5zM285.5 409q-77.5 0 -132.5 -55t-55 -132.5t55 -132t132.5 -54.5
t132 54.5t54.5 132t-54.5 132.5t-132 55zM286.5 179q-17.5 0 -30 12t-12.5 29.5t12.5 30t30 12.5t30 -12.5t12.5 -30t-12.5 -29.5t-30 -12zM931 73l-2 14q-97 -30 -196 -36q-52 -3 -104 1l2 -14q20 -1 41 -2q131 -3 259 37zM629 52q52 -4 104 -1q50 22 80.5 68.5t30.5 102.5
q0 78 -54.5 132.5t-132 54.5t-132 -54.5t-54.5 -132t54.5 -132.5t131.5 -55q8 0 15 1q-21 1 -41 2zM616 221.5q0 17.5 12.5 30t30 12.5t30 -12.5t12.5 -30t-12.5 -30t-30 -12.5t-30 12.5t-12.5 30z" />
    <glyph glyph-name="uniE60D" unicode="&#xe60d;" 
d="M676 34zM514 35q-64 104 -68 110q-98 170 -137 281q-35 103 -15 176q22 77 88.5 123.5t147.5 41.5q78 -5 138 -60.5t71 -133.5q9 -61 -22 -148q-38 -110 -136 -280q-4 -6 -67 -110zM696 539q-1 76 -54 129.5t-129 53t-129 -54t-53 -129.5q0 -75 53.5 -128.5t128.5 -53.5
t129 53.5t54 129.5zM480 586q-28 -25 -31 -28q-2 -2 -5.5 -8t-6.5 -9l-15 -5q-1 2 -2.5 6t-1.5 6v5q2 2 8 12.5t9 14.5t10 10t15 9q5 2 16.5 8t20 8.5t18.5 1.5q16 -2 19 -13q1 -2 2.5 -6t2.5 -7q8 -36 39 -43q17 -4 11 -18q-4 -11 -21 -3q-13 6 -14 6q-4 3 -32 23
q-9 -32 6 -54q12 -18 38 -78q0 -2 -0.5 -5t-2.5 -7l-3 -6q-13 8 -15 9q-1 1 -2 4q-14 50 -56 85q-18 15 -11 39q1 2 9 39q-2 2 -5 4zM527 687q12 0 20.5 -8t8.5 -20q1 -12 -7.5 -21t-21 -9t-21 8.5t-8.5 20.5t8.5 20.5t20.5 8.5zM469 505q21 -19 22.5 -27.5t-13.5 -28.5
l-27 -36q-11 -14 -19 -5q-2 2 0 19q0 1 5 6q12 15 16.5 22t10 21.5t5.5 28.5z" />
    <glyph glyph-name="uniE60E" unicode="&#xe60e;" 
d="M669 35zM686 35zM675 36zM513 737q56 0 96.5 -49.5t40.5 -120.5v-155q0 -70 -41 -119v-1q-40 -49 -96 -49q-57 0 -97 49l-1 2q-40 50 -40 118v155q0 70 40.5 120t97.5 50zM419 506h187v61q0 48 -27.5 82t-65.5 34q-39 0 -66.5 -34t-27.5 -82v-61zM606 474h-187v-62
q0 -47 27 -80l1 -1q27 -34 66 -34q38 0 66 34v0q27 34 27 81v62zM383 35h128h2h1h128q9 0 15.5 7.5t6.5 19t-6.5 19.5t-15.5 8h-108v65q74 9 127 75q30 36 46 84t16 99v78q0 11 -6.5 19t-15.5 8t-15.5 -8t-6.5 -19v-78q0 -41 -13 -78q-12 -38 -36 -67q-49 -61 -117 -61
q-34 0 -64 16q-30 15 -54 44.5t-36.5 67t-12.5 78.5v78q0 11 -6.5 19t-15.5 8t-15.5 -8t-6.5 -19v-78q0 -51 16 -99t46 -84.5t68 -56.5q28 -14 59 -18v-65h-108q-9 0 -15.5 -8t-6.5 -19.5t6.5 -19t15.5 -7.5z" />
    <glyph glyph-name="uniE60F" unicode="&#xe60f;" 
d="M676 34q-56 0 -96 40t-40 96t40 96t96 40t96 -40t40 -96t-40 -96t-96 -40zM681 50q40 1 73 29q15 13 3 30q-5 8 -21 15q-26 12 -30 14q-5 3 -7.5 8.5t0.5 9t7.5 13.5t9.5 13q1 1 1 3q2 10 3 13l-2 6t-2 7q2 28 -22 41q-6 3 -12.5 3.5t-10.5 -0.5t-12 -4.5t-11 -4.5
q-2 0 -6 -5q-9 -11 -9 -30q0 -3 -2 -8q-1 -2 0 -11t4 -10q3 -2 6 -10q4 -8 8 -13.5t2.5 -11.5t-7.5 -9q-1 -1 -4.5 -2.5t-5.5 -2.5q-33 -16 -36 -19q-9 -5 -10 -15t6 -16q35 -33 87 -33zM769 750q0 22 -6.5 28.5t-27.5 6.5h-407h-3q-19 0 -25.5 -6.5t-6.5 -23.5v-39v-38
q0 -1 -1 -15h-51q-19 0 -25.5 -6.5t-6.5 -26.5v-523q0 -20 8 -26q2 3 6 4q0 7 6 9v487h437v-245q6 0 19 1v15v277q0 21 -6.5 27.5t-27.5 6.5h-319h-19v40h437v-1l2 1q12 1 17 0v47zM625 633q6 0 10.5 -4.5t4.5 -10.5t-4.5 -10t-10.5 -4t-10.5 4t-4.5 10t4.5 10.5t10.5 4.5z
M578 633q6 0 10.5 -4.5t4.5 -10.5t-4.5 -10t-10.5 -4t-10.5 4t-4.5 10t4.5 10.5t10.5 4.5zM529 633q6 0 10.5 -4.5t4.5 -10.5t-4.5 -10t-10.5 -4t-10.5 4t-4.5 10t4.5 10.5t10.5 4.5zM617.5 730q-6.5 0 -10.5 4t-4 10t4 10.5t10.5 4.5t10.5 -4.5t4 -10.5t-4 -10t-10.5 -4z
M666.5 730q-6.5 0 -10.5 4t-4 10t4 10.5t10.5 4.5t10.5 -4.5t4 -10.5t-4 -10t-10.5 -4zM713 730q-6 0 -10 4t-4 10t4 10.5t10 4.5t10.5 -4.5t4.5 -10.5t-4.5 -10t-10.5 -4zM503 449h123v96h-123v-96zM257 541h33v-17h-33v17zM257 470h33v-16h-33v16zM257 399h33v-17h-33v17z
M257 330h33v-17h-33v17zM257 255h33v-16h-33v16zM257 184h33v-17h-33v17zM321 541h146v-17h-146v17zM321 470h146v-16h-146v16zM321 399h306v-17h-306v17zM321 330h306v-17h-306v17zM321 255h219v-16h-219v16zM321 184h198v-17h-198v17zM539 86q-1 2 -3 5q-2 2 -5 7h-307
q-10 0 -10 -10t10 -10h320q-2 4 -5 8zM756 324q2 -2 6 -5q3 -1 5 -3q1 -1 2 -3h1v0v396h-19v-382q2 -1 5 -3z" />
    <glyph glyph-name="uniE610" unicode="&#xe610;" 
d="M676 34zM510 34q-96 0 -179 48t-131 130.5t-48 180t47.5 180t130 131t179.5 48.5q98 1 181 -47t131.5 -130.5t48.5 -179.5q0 -98 -47.5 -181t-130.5 -131.5t-182 -48.5zM512 700q-126 0 -216.5 -89t-91.5 -213q-2 -129 87 -221t216 -94q84 -1 156.5 39.5t114.5 111
t42 153.5q1 132 -88.5 222.5t-219.5 90.5zM810 391.5q0 -122.5 -87.5 -210t-209.5 -87.5q-123 -1 -211 87.5t-88 210.5q1 123 88.5 210.5t210 87.5t210 -88t87.5 -210.5zM463 452q0 39 -33 70.5t-71 30.5q-21 -1 -35.5 -13t-17.5 -33q-8 -43 30.5 -81t81.5 -29q14 2 25 -9
q44 -44 171 -170q9 -10 12 -10q16 -3 22 3q5 5 2 21q0 2 -10 12l-159 159q-1 0 -4.5 4t-4.5 4.5t-4 4t-3.5 5t-2.5 4.5t-2 5.5t-0.5 5.5t0.5 6.5t3 6.5v3zM585 457q43 42 47 46q5 5 14.5 14t11.5 12q13 12 5 19q-5 4 -19 -4q-2 -1 -17 -16q-8 -9 -55 -57q-5 5 -12 13
q60 61 72 73q3 3 4.5 9t0.5 8q-7 10 -19 -2l-76 -76q-34 -36 -16 -77q2 -5 -3 -11q-10 -11 -10 -15t11 -15q1 0 11 -10q7 6 8 7q10 14 27 7q30 -13 53 8q29 26 94 90v15q-14 -1 -15 -1q-4 -3 -22 -22l-54 -54q-2 1 -12 12q60 61 73 74q1 2 2 4.5t1 7.5v6q-17 -3 -17 -4
q-5 -3 -35 -34q-4 -4 -39 -38q-3 2 -14 11zM370 205q14 11 15 11l88 88q16 16 16 18t-16 19q-9 10 -20 -1q-14 -14 -30 -30.5t-35.5 -35.5t-30.5 -30q-6 -6 -8 -11q-6 -10 0.5 -19t20.5 -9z" />
    <glyph glyph-name="uniE611" unicode="&#xe611;" 
d="M557 338v-304h-93v303h-304v94h304v307h93v-306h308v-94h-308z" />
    <glyph glyph-name="uniE612" unicode="&#xe612;" 
d="M676 34zM815 695q44 1 76 -29t36 -73q3 -44 -24 -78.5t-71 -41.5q-20 -3 -40 1q-6 2 -9 -4q-86 -148 -124 -214q-2 -3 -2 -4.5t0.5 -2.5t2.5 -3l3 -1q44 -35 37 -89q-7 -57 -61 -77q-29 -11 -58 -3t-48.5 31.5t-22 53.5t13.5 56q4 8 -3 13q-71 53 -174 130q-7 6 -14 2
q-21 -10 -42 -7q-8 2 -12 -6q-29 -51 -52 -90q-5 -8 1 -15q29 -38 7 -81q-10 -19 -30.5 -29.5t-41.5 -7.5q-48 6 -63 51q-12 39 15.5 70t67.5 24q8 -2 12 5q29 51 50 87q5 8 -2 14q-20 18 -25.5 44t5 50.5t33.5 38.5t50 12q26 -2 46 -18.5t28 -42.5q10 -34 -9 -65
q-3 -6 3 -11q80 -60 176 -131q5 -4 11 -1q24 13 52 11q8 -1 13 7q65 113 122 211q5 9 -2 14q-28 22 -38 56.5t2 67.5q11 34 40 54.5t65 20.5z" />
    <glyph glyph-name="uniE613" unicode="&#xe613;" 
d="M806.5 432q13.5 0 22.5 9.5t9 22.5t-9 22.5t-22.5 9.5t-23 -9.5t-9.5 -22.5t9.5 -22.5t23 -9.5zM904 613h-166l-35 96q-2 11 -11 18t-20 7h-320q-23 0 -31 -22l-14 -42h-142q-8 0 -14 -6t-6 -14v-37h-24h-1q-13 0 -22.5 -10t-9.5 -23v-512v-1q0 -13 9.5 -23t22.5 -10h783
h1q13 0 22.5 10t9.5 23v512v1q0 13 -9.5 23t-22.5 10zM171 627h113l-6 -17h-107v17zM890 84h-752v477h164q11 0 20.5 7.5t12.5 18.5l36 104h287l37 -107q8 -23 32 -23h163v-477zM512.5 573q-87.5 0 -150 -62.5t-62.5 -149.5t62.5 -149.5t149.5 -62.5t149.5 62.5t62.5 149.5
t-62 149.5t-149.5 62.5zM511 200q-67 0 -114.5 47.5t-47.5 114.5t47.5 114.5t114.5 47.5t114.5 -47.5t47.5 -114.5t-47.5 -114.5t-114.5 -47.5zM511.5 465q-42.5 0 -73 -30.5t-30.5 -73t30.5 -73t73 -30.5t73.5 30.5t31 73.5q0 42 -31 72.5t-73.5 30.5zM511 291
q-29 0 -50 20.5t-21 50t21 50.5t50 21q30 0 51 -21q20 -21 20 -50t-20.5 -50t-50.5 -21z" />
    <glyph glyph-name="uniE614" unicode="&#xe614;" 
d="M891 733h-758q-13 0 -22.5 -9t-9.5 -22v-635v-1q0 -13 9.5 -22t22.5 -9h757h1q13 0 22.5 9t9.5 22v635v1q0 13 -9.5 22t-22.5 9zM152 682h719v0v-477l-219 220q-6 5 -14 5t-14 -5l-173 -173l-117 117q-5 6 -13 6t-14 -6l-155 -155v468zM871 87h-719v72l169 169l116 -116
v-1h1v-1h1l68 -69q6 -6 14 -6t14 5.5t6 14t-6 13.5l-56 56l159 159l233 -233v-63zM333 647q-47 0 -80.5 -33.5t-33.5 -80.5t33.5 -80.5t80.5 -33.5t80.5 33.5t33.5 80.5t-33.5 80.5t-80.5 33.5zM333 458q-31 0 -52.5 22t-21.5 53t21.5 53t52.5 22t53 -22t22 -53t-22 -53
t-53 -22z" />
    <glyph glyph-name="uniE615" unicode="&#xe615;" 
d="M669 35zM686 35zM675 36zM683 35h-471q-31 14 -31 55v426q0 28 12.5 40t40.5 12h427q29 0 41.5 -12t12.5 -41v-426q0 -41 -32 -54zM409 290l-9 -10q-56 -56 -57 -58q-10 -9 -10.5 -20.5t7.5 -19.5q8 -9 19.5 -8.5t21.5 10.5q2 2 13 12q5 5 55 56q31 -34 34 -36
q24 -25 37 -36q9 -7 18.5 -6t17.5 8q15 16 1 35q-3 4 -12 13q-8 9 -61 61q19 14 20 15l48 48q10 11 11 22.5t-8 20.5q-19 18 -41 -4q-6 -5 -19 -18q-5 -5 -47 -48q-32 32 -34 35l-33 33q-22 20 -40 1q-19 -18 1 -40l9 -9q8 -7 58 -57zM580 485q7 0 12.5 5t5.5 12
q0 16 -16 18q-8 1 -14 -4t-5 -13q0 -15 17 -18zM662 503q0 7 -5 12t-13 5t-12.5 -5.5t-4.5 -13.5q2 -16 18 -16q16 1 17 18zM809 736q31 -14 31 -55q-1 -62 -1 -425q0 -29 -12 -41t-40 -12h-34v48h38v355h-485v50v26q-3 40 32 54h471zM770 688q-18 -2 -18 -17q-1 -17 16 -18
q8 -1 13.5 4.5t5.5 12.5q-1 16 -17 18zM704 653q17 0 19 17q0 7 -5.5 12.5t-12.5 5.5q-17 -1 -17 -18q0 -15 16 -17z" />
    <glyph glyph-name="uniE616" unicode="&#xe616;" 
d="M669 35zM686 35zM675 36zM683 35h-471q-32 14 -31 55v426q0 29 12 41t41 12h428q29 0 41.5 -12.5t12.5 -41.5v-426q0 -41 -33 -54zM667 440h-438v-357h438v357zM581 521q-16 -1 -18 -17q0 -7 5.5 -13t12.5 -5q18 1 17.5 17t-17.5 18zM647 521q-18 0 -19 -17
q-1 -8 4.5 -13.5t12.5 -4.5q17 1 17.5 17t-15.5 18zM810 737q31 -14 31 -55q-1 -62 -1 -426q0 -29 -12 -41.5t-40 -12.5h-34v48h38v357h-486v50v26q-3 40 32 54h472zM788 671q-2 18 -18 18q-16 -1 -17 -18q-1 -7 4.5 -12.5t13.5 -4.5q15 1 17 17zM724 671q-2 17 -18 18
q-17 0 -17 -17q-1 -8 4 -13t13 -5q15 0 18 17zM412 264q-62 61 -69 68q-16 16 -7 30q9 15 21 16t25 -11q9 -8 66 -65l58 58q10 10 13 12q20 16 36 -1q8 -7 8 -17t-7 -19q-10 -11 -42 -43q-2 -1 -30 -27q53 -52 62 -61q8 -8 11 -12q14 -19 -2 -35t-35 -1q-5 4 -24 23l-48 48
q-50 -51 -59 -59q-9 -9 -13 -12q-19 -15 -35 1q-7 7 -7.5 17t5.5 18q9 10 39 39q2 2 34 33z" />
    <glyph glyph-name="uniE617" unicode="&#xe617;" 
d="M669 35zM686 35zM675 36zM339 473v169q0 41 25 66t67 25h339q41 0 66.5 -25t25.5 -66v-341q0 -41 -25 -66t-66 -25q-163 -1 -342 0q-40 0 -65 25t-25 66v172zM818 472v170q0 47 -47 47q-164 1 -340 0q-49 0 -49 -48v-339q0 -49 49 -49h338q49 0 49 50v169zM294 559v-44
h-40q-21 0 -33.5 -12.5t-12.5 -33.5v-343q0 -22 12 -34.5t34 -12.5h344q21 0 33 12t13 32v42h41q5 -43 -1.5 -68.5t-32.5 -43.5q-24 -17 -49 -17q-124 -2 -352 -1q-36 0 -61 25.5t-25 61.5q-1 182 0 350q0 36 24.5 60.5t60.5 25.5q2 1 45 1z" />
    <glyph glyph-name="uniE618" unicode="&#xe618;" 
d="M669 35zM686 35zM675 36zM840 314q-16 32 -24 45q-14 26 0 52q6 11 24 45q22 43 -22 65q-30 16 -47 24q-25 12 -28.5 40t-8.5 55q-8 43 -51 37q-38 -6 -55 -10q-27 -5 -46 15q-17 18 -37 37q-33 34 -67 1q-6 -6 -38 -39q-18 -19 -44 -14q-23 5 -56 10q-20 3 -33.5 -7
t-17.5 -30q-5 -33 -8 -55q-4 -29 -29 -41q-23 -10 -49 -24q-40 -21 -20 -62q10 -20 26 -51q12 -22 0 -43q-13 -25 -25 -50q-22 -42 20 -64q23 -12 50 -25q23 -11 27 -38q5 -37 9 -59q3 -18 16.5 -27.5t31.5 -6.5q42 6 58 9q26 5 45 -14q14 -14 37 -38q18 -17 33.5 -17.5
t33.5 17.5l38 38q18 19 44 14q5 -1 60 -10q40 1 47 36q5 29 9 58q3 27 27 38q21 10 49 24q42 22 21 65zM679 443q-96 -95 -174 -173q-13 -14 -27 0l-100 100q-7 7 -7 17q3 14 24 26q10 6 23 -8l65 -65q9 -9 18 0q19 20 42 43l51 51l42 42q14 14 24 10q19 -9 25 -27
q2 -7 -6 -16z" />
    <glyph glyph-name="uniE619" unicode="&#xe619;" 
d="M669 35zM686 35zM675 36zM796 405q-11 -12 -52 -61.5t-42 -53.5h43q5 0 6 -1.5t-1 -5.5q-34 -76 -105.5 -117.5t-153.5 -32.5q-128 14 -195 128q-14 23 -24 57q-5 -6 -6 -7q-34 -37 -36 -39q-4 -5 -7.5 0t-34.5 40q-2 3 -19 22h-1v-1l1 -4q16 -94 75 -165.5t145.5 -104.5
t180.5 -18q210 36 281 244q3 8 11 7h41l-1 1l-1 1l-1 1l-1 1l-1 1l-1 1l-1 1l-1 1l-1 1l-1 1l-1 1l-1 1l-1 1l-1 1l-1 1l-1 1l-1 1l-1 1l-1 1v1l-1 1l-1 1l-1 2l-1 1l-1 1l-1 1l-1 1l-1 1l-1 1l-1 1l-1 1l-1 1l-1 1l-1 1l-1 1l-1 1l-1 1l-1 1l-1 1l-1 1l-1 1l-1 1l-1 1v1
l-1 1l-1 1l-1 1l-1 1l-1 1l-1 1l-1 1l-1 1l-1 1l-1 1l-1 1l-1 1l-1 1l-1 1l-1 1l-1 1l-1 1l-1 1l-1 1l-1 1v1l-2 1l-1 1l-1 1l-1 1l-1 1l-1 1l-1 1l-1 1l-1 1v1l-1 1l-1 1l-1 1l-1 1l-1 1l-1 1l-1 1l-1 1l-1 1l-1 1l-1 1l-1 1l-1 1l-1 1l-1 1l-1 1l-1 1l-1 1l-1 1l-1 1v1
l-1 1l-1 1l-1 1l-1 1l-1 1l-1 1l-1 1l-1 1l-1 1l-1 1l-1 1l-1 1l-1 1l-1 1zM231 288q2 3 55 64q3 3 40 46h-57q-6 0 -5 6q0 1 1.5 14t2.5 20q22 100 105.5 157t181.5 42q74 -11 131.5 -62.5t75.5 -123.5q7 -27 9 -56l19 19q4 3 8 0q2 -3 18 -18q6 -5 45 -42q6 40 -3 91
q-17 92 -74.5 162t-142.5 103t-177 19q-159 -23 -247 -163q-45 -72 -50 -161q0 -7 -7 -7h-37l2 -2q87 -96 99 -109q3 -3 7 1zM843 445q-3 -1 -4 -2.5t-0.5 -5t0.5 -4.5t-4 -2q-2 0 -3 5q-2 7 -1 5q-1 1 -3 1q-6 0 -5 -7q1 -5 0 -5q-7 -1 -8 3q-4 14 -2 23q2 7 8 8q8 1 5 7
q6 -7 16 -23zM815 522q7 -10 6 -16q0 -1 2 -5q4 -6 5 -14q0 -8 -7 -10h-1h-2q-1 0 -4 -1t-4 -1.5t-3 0.5q-2 3 -5 15q-1 2 3 3q2 0 5 1.5t5 1.5q3 1 1 5q-1 3 -4 2l-1 -1q-10 -2 -13 -0.5t-6 11.5q-1 4 2 5q1 0 3 1t3 1q2 0 5 2.5t5 3t5 -3.5zM803 533q-2 -5 -7.5 -6.5
t-9.5 2.5q-12 12 -13 24q-2 11 8 11q9 1 17 -11t5 -20zM718 615q2 1 4 4t3.5 4t5.5 0q11 -6 12 -11l2 -2q1 0 1.5 -0.5t1.5 -0.5q5 -4 14 -14t14 -14l2 -5q-1 -4 -3 -6t-7 -4l-4 -3q-3 -1 -3.5 -0.5t-2 2.5t-1.5 3q-5 5 -4.5 6.5t5.5 5.5q1 1 2 1q4 3 2 6q-3 3 -6 0
q-1 -1 -2 -1l-2 -2t-3.5 -3t-3.5 -1q-5 3 -11 11q-2 2 1 4q1 1 2 1q0 1 2.5 3t3 2.5t-0.5 3.5q-3 2 -4 2.5t-4 -3.5l-2 -3q-6 -6 -11 0q-2 2 -6 5q-4 2 0 5l1 1q1 2 2 3zM677.5 640q2.5 5 10.5 6q16 -2 26 -14q4 -6 -0.5 -12t-10.5 -4q-15 5 -22 14q-6 5 -3.5 10zM626 652
q1 4 4 2t4 -1q-5 7 -2 11q4 4 12 3q7 -2 30 -11q3 -2 1 -5q-1 -1 -3.5 -5.5t-4.5 -7.5q-5 -7 -16 -4q-9 2 -23 9q-4 3 -2 9zM583 665q0 5 9 5q1 0 9 -1q-2 2 -10 4h-2q-2 0 -2 2q0 4 3 4q20 1 30 -6q3 -3 3.5 -5.5t-1.5 -7t-2 -5.5q-1 -2 -2.5 -2.5t-3.5 0.5t-3 1
q-3 0 -9.5 2t-10.5 3q-8 0 -8 6zM528 673v3q1 9 2.5 10.5t9.5 0.5q19 -2 26 -2q8 -1 9 -7q2 -10 -3 -15q-3 -2 -4 -2t-5 1t-6 2q-3 0 -2 4q1 1 1 2v5q1 4 -3 5q-3 0 -4 -4q-1 -9 -3 -10t-10.5 -1t-7.5 8zM483 684q16 5 28 2q5 -1 8 -8t0 -11q-1 -2 -4 -2q-17 0 -26 -1
q-7 0 -9 4q-1 4 4 6l2 2v0q-2 0 -4 1q-6 5 1 7zM395 667q4 4 19 6q1 -2 4 0l1 1q8 3 23 5.5t18 2.5q5 2 9.5 -5.5t2.5 -12.5q-1 -2 -5 -2q-1 0 -2 -1q-13 -4 -13 9q0 1 -1 3q-1 3 -5 1q-2 0 -2 -4q1 -1 2 -4t1 -4t-1 -3t-5.5 -2.5t-5.5 -0.5q-7 -3 -9 4q0 3 -2 7q-2 3 -5 1
q-2 -1 -1 -4q0 -2 1.5 -4.5t1.5 -3.5t-1 -3t-5.5 -3t-5.5 -1q-6 -3 -8 4q-1 0 -1 1q-1 2 -3 5t-2.5 4.5t0.5 3.5zM346 643h2q1 7 10 11t11 5q-4 -23 -4 -32q0 -4 -3 -5l-16 -8q2 8 -1.5 11.5t-11 5t-9.5 2.5q9 10 22 10zM297 611q7 12 11 19q1 2 2 0q2 -3 6 0q5 3 7 0t-1 -4
l-2 -2h-1q-2 -2 0 -4q3 -4 7 -1q5 4 7 0q3 -4 -1 -6q-1 -1 -2 -1q-8 -8 -19 -9q-2 -1 -6 3t-7 4zM274 595q1 1 7 6h-2q-5 1 -3 4q4 7 8 4q2 -1 18 -15q3 -2 1 -4t-6 -5.5t-4 -4.5q-2 -1 -4 0q-9 7 -15 12q-2 1 0 3zM249 576.5q1 1.5 12 14.5l3 -2q3 -2 10 -8q9 -6 9 -8
t-6 -10q-4 -5 -8 -1q-2 1 -7 4t-7 4q0 1 -2.5 2t-3.5 2t0 2.5zM230 536q3 7 7 13q12 18 28 4q3 -2 1 -4q-14 -21 -14 -22q-3 -7 -9 -4q-4 1 -3 9q0 3 5 9q-3 0 -4.5 -1t-2.5 -4t-1 -3.5t-1 -1.5q0 -3 -4 -2q-3 1 -2 7zM206 478v2q1 2 2 3q2 8 3.5 9t9.5 -1q6 -1 7 3
q1 2 -4 4q-8 3 -9 5t2 9t5 8t9 -2h1q0 -1 1 -1q0 -1 6 -2t4 -7q-1 0 -1.5 -4t-2 -6t-4.5 -3q-1 0 -1 -4q1 -8 -4 -15q-3 -5 -9 -5q-12 3 -13 3q-3 1 -2 4zM206 407q-10 1 -13 16q-4 21 7 35q8 11 19 3q2 -2 4.5 0.5t4.5 1.5q-3 -7 -4 -21t-4 -21q-6 -15 -14 -14zM482 677
q2 -1 4 -1h1h1h1h1h2h1h1l1 1h1h1q-7 4 -15 0zM208 442q-3 1 -4 -4q-1 -6 2 -7q2 0 4 6zM650 651q4 0 4 5l-3 2q-5 -1 -5 -4q1 -3 4 -3zM790 547q2 -5 6 -8q1 5 0 6.5t-6 1.5zM250 535l2 2q0 2 -2 2t-3 -2q0 -1 1 -2t2 0zM698 633q6 -4 9 -4q-3 5 -4 5.5t-5 -1.5zM496 673
q-3 -1 -2 -2q0 -2 3 -2q2 0 1 2q0 2 -2 2zM599 661q2 1 2 2q0 2 -2 2t-2 -2q0 -1 2 -2zM487 213q4 -5 11 -5q4 0 9 2q-3 -4 -4 -7l-4 -7q-9 1 -16 9q-6 -2 -11 -2q-9 0 -15 4v1q8 -4 14 -4t11 2v1l-2 2q-5 -2 -10 -2q-13 0 -21.5 10.5t-8.5 25.5q0 16 8 26t22 10
q13 0 21 -9.5t8 -25.5q0 -10 -2.5 -17t-9.5 -14zM484 221q3 8 3 23q0 31 -18 31t-18 -33q0 -14 5 -22.5t14 -8.5q3 0 7 2q-3 6 -9 6h-1l4 4q4 -1 9 -5l1 -1l2 2v1q-4 3 -10 5l1 1q5 -1 9 -5h1zM480 268l-1 1q-4 2 -7 2q-9 0 -12.5 -7.5t-3.5 -24.5q0 -20 11 -26q-6 2 -9 8.5
t-3 18.5q0 17 3.5 24.5t12.5 7.5q5 0 9 -3v-1zM488 275q8 -3 12.5 -11.5t4.5 -20.5q0 -17 -11 -30q4 -2 10 -3h-3q-5 0 -9 3q11 11 11 30q0 21 -15 32zM511 207q-4 -6 -8 -13h-1h-1q2 4 4 7l4 6l1 1zM584 278l-8 -8v-55l7 -7h-25l8 7v36l-18 -47h-5v1h4l19 51v8l-21 -56h-3
l-15 44v-29q0 -5 0.5 -7.5t3.5 -5.5l5 -6h-28l-1 1h26l-2 3h-24l1 1q6 3 8 6.5t2 10.5v45l-7 7h28l-8 -7l15 -46l2 5l-14 40l8 6l1 -1l-7 -5l13 -38l14 39l-7 7h28zM522 265v-39q0 -9 2 -12.5t7 -4.5v1q-6 3 -6 10v4v33zM587 274l-6 -5v-54l9 -11h-29v1h26l-8 9v56l7 5z
M417 546h3v-141h-3v141zM418 547h-1l37 -137l4 1l-38 136h-2zM417 547l-37 -136l3 -1l37 137h-1h-2zM458 412q0 -6 -11.5 -10t-28 -4t-27.5 4t-11 10h78zM400 553h230v-7h-230v7zM509 548h7v-183h-7v183zM608 547h3v-142h-3v142zM609 548h-1l37 -137l3 1l-37 136h-2z
M608 548l-38 -136l4 -1l37 137h-2h-1zM648 412q0 -5 -11 -9t-27.5 -4t-28 4t-11.5 9h78zM424 365h178v-7h-178v7z" />
    <glyph glyph-name="uniE61A" unicode="&#xe61a;" 
d="M669 35zM686 35zM675 36zM815 359q-15 26 -1 51q4 6 8 13l7 15q4 8 6 13q14 26 9 42.5t-31 29.5q-35 17 -44 22q-23 11 -27 37q-3 27 -9 58q-3 20 -16.5 29.5t-33.5 6.5q-36 -5 -55 -9q-27 -5 -45 14q-25 25 -38 39q-33 32 -65 0l-12 -12l-15 -15q-8 -8 -12 -13
q-19 -18 -44.5 -13t-56.5 9q-19 3 -32.5 -6.5t-16.5 -29.5q-6 -36 -9 -58q-3 -26 -27 -37q-41 -20 -48 -24q-43 -22 -21 -65q8 -16 25 -49q12 -22 0 -44q-18 -35 -25 -49q-22 -42 20 -64q10 -6 49 -25q24 -11 27 -37q4 -33 9 -61q4 -18 17.5 -27t31.5 -6q43 7 56 9
q27 5 45 -14l38 -38q33 -32 65 -1q10 10 39 40q18 18 44 13q5 -1 59 -10q41 0 47 37q7 38 9 58q3 26 28 38q24 11 46 23q44 22 22 66q-17 32 -23 44zM750 273q-4 -2 -15.5 -8t-18.5 -9q-18 -10 -20 -29q-3 -19 -7 -45q-3 -16 -12.5 -23t-28.5 -6q-38 6 -42 6q-23 5 -39 -13
l-24 -24q-17 -17 -29.5 -17t-30.5 18l-26 26q-14 14 -34 11q-31 -6 -48 -7q-31 -3 -37 29q-3 18 -7 44q-2 21 -21 30q-23 11 -38 19q-33 17 -16 52q11 23 17 33q13 22 0 43q-10 18 -19 38q-14 30 15 47q9 4 41 20q19 9 21 30q3 20 7 46q5 28 34 28q11 0 49 -7q23 -5 38 12
l26 26q16 16 28.5 16t28.5 -16l25 -25q16 -18 39 -13q38 7 50 7q28 -1 32 -27q4 -20 8 -48q2 -19 20 -28q5 -3 18 -9.5t20 -9.5q34 -18 18 -52q-8 -15 -20 -38q-10 -18 0 -36q6 -12 18 -34q11 -22 6.5 -34t-26.5 -23zM668 447q0 -9 -7 -17l-171 -171q-8 -8 -14 -8t-15 8
l-98 98q-8 9 -7.5 15.5t12.5 17.5q10 11 16.5 11.5t14.5 -7.5q44 -43 68 -69q9 -8 17 1q11 10 139 139q13 13 22 7q21 -13 23 -25z" />
    <glyph glyph-name="uniE61B" unicode="&#xe61b;" 
d="M408 218v-50l-5 -2q-153 2 -167 3q-48 3 -84 35t-49 82q-12 44 5 89.5t55 71.5q13 9 15 26q7 73 53.5 128.5t116.5 74.5q72 19 140 -5.5t111 -85.5q8 -11 23 -8q57 12 108.5 -14t76.5 -78q6 -12 20 -18q47 -18 75.5 -61t24.5 -91q-4 -55 -38 -94.5t-85 -50.5
q-12 -3 -25 -3q-26 0 -141 -1h-20v52h18q128 0 138 1q36 0 63.5 22.5t35.5 58.5q8 34 -8 66.5t-48 48.5q-6 2 -18.5 5t-16.5 5q-11 4 -12 10q-7 38 -37 64t-68 29t-78 -21l-4 -1q-5 10 -5 11q-23 57 -73 88t-111 27q-58 -4 -102 -42.5t-58 -96.5q-4 -17 -5 -57
q0 -14 -10 -17q-37 -15 -55.5 -47t-10.5 -70q7 -37 35.5 -60t67.5 -24h133h19zM461 90v205h-78l130 156q56 -66 129 -155h-77v-206h-104z" />
    <glyph glyph-name="uniE61C" unicode="&#xe61c;" 
d="M676 34zM874 382q-173 174 -336 337q-26 26 -52 0l-337 -337q-23 -23 -4 -43q19 -21 44 4q4 3 51 50v-19v-299q0 -21 9 -30.5t31 -9.5q242 -1 464 0q40 0 40 39v152v167l51 -51q23 -23 43 -3.5t-4 43.5zM551 91q-31 1 -76 0q-6 0 -8 2t-2 8v65v63q1 21 14.5 34.5t34 13.5
t34 -13.5t13.5 -35.5v-63v-63v-6q0 -2 -2.5 -4t-7.5 -1zM714 91q-40 1 -88 0q-7 0 -9.5 2.5t-2.5 9.5q1 41 0 124q0 44 -28.5 73.5t-71.5 29.5q-44 0 -73 -29.5t-29 -73.5v-122q0 -8 -2.5 -11.5t-11.5 -2.5q-43 1 -89 0q-8 -1 -10.5 2t-2.5 12v165v166q0 13 8 22
q116 115 197 197q7 6 11 6t10 -6q81 -82 197 -197q8 -9 8 -20q0 -190 1 -334q0 -8 -3 -11t-11 -2z" />
    <glyph glyph-name="uniE61D" unicode="&#xe61d;" 
d="M165 656q14 34 57 33h270q26 0 35 -16q9 -13 3.5 -27.5t-20.5 -19.5q-8 -2 -20 -2h-244h-15v-519h518v15v245q0 11 2 19q3 10 11.5 16.5t19.5 6.5q10 0 18.5 -6.5t11.5 -16.5q2 -8 2 -18v-275q0 -51 -51 -51q-462 0 -541 -1q-43 0 -57 33v584zM746 732q91 -89 104 -101
q16 -16 -1 -36q-1 -2 -8 -9q-267 -267 -341 -342q-11 -10 -25 -10h-114l-1 11v109q0 10 7 17q127 128 348 348q0 1 15 13h16zM425 299h22q19 -2 35 15q51 50 288 287q0 1 9 10q-27 26 -44 43q-9 -10 -10 -10q-228 -229 -275 -275q-31 -31 -25 -66v-4z" />
    <glyph glyph-name="uniE622" unicode="&#xe622;" 
d="M669 35zM686 35zM675 36zM346 564h159v-19h-159v19zM346 499h159v-19h-159v19zM345 433h160v-19h-160v19zM345 357h370v-19h-370v19zM345 285h370v-19h-370v19zM680 197q4 4 7 6q6 5 12 9h1v1h-355v-19h329q5 3 6 3zM697 234l-32 -15zM314 121h1q-5 -10 -4 -21h-1v0h299
v22h-295v-1zM580 414h135v152v-152h-135zM738 638v43v-43zM315 121h-1v1v593h441v-504v503h20v-64v68q0 11 -4.5 14.5t-15.5 3.5h-281h-163q-10 0 -14.5 -4t-3.5 -14v-32h-60q-20 0 -23 -3.5t0 -21.5q0 -1 1 -15h-56q-17 0 -20 -4.5t2 -20.5q115 -394 146 -501q6 -20 26 -20
h1v0h1q-1 11 4 21zM215 624q39 -290 47 -351q-1 0 -2 -1l-1 1v1v1l-1 1v1v1v1l-1 1v1v1l-1 1v1v1v1l-1 1v1v1l-1 1v1v1v1l-1 1v1v1l-1 1v1v1l-1 1v1v1v1l-1 1v1v1l-1 1v1v1v1l-1 1v1v1l-1 1v1v1v1l-1 1v1v1l-1 1v1v1l-1 1v1v1v1l-1 1v1v1l-1 1v1v1v1l-1 1v1v1l-1 1v1v1l-1 1
v1v1v1l-1 1v1v1l-1 1v1v1v1l-1 1v1v1l-1 1v1v1v1l-1 1v1v1l-1 1v1v1l-1 1v1v1v1l-1 1v1v1l-1 1v1v1v1l-1 1v1v1l-1 1v1v1v1l-1 1v1v1l-1 1v1v1l-1 1v1v1v1l-1 1v1v1l-1 1v1v2l-1 1v1v1l-1 1v1v1v1l-1 1v1v1l-1 1v1v1l-1 1v1v1v1l-1 1v1v1l-1 1v1v1v1l-1 1v1v1l-1 1v1v1v1
l-1 1v1v1l-1 1v1v1v1l-1 1v1v1l-1 1v1v1l-1 1v1v1v1l-1 1v1v1l-1 1v1v1v1l-1 1v1v1l-1 1v1v1v1l-1 1v1v1l-1 1v1v1v1l-1 1v1v1l-1 1v1v1l-1 1v1v1l-1 1v1v1l-1 1v1v1v1l-1 1v1v1l-1 1v1v1v1l-1 1v1v1l-1 1v1v1v1l-1 1v1v1l-1 1v1v1l-1 1v1v1v1l-1 1v1v1l-1 1v1v1v1l-1 1v1v1
l-1 1v1v1v1l-1 1v1v1l-1 1v1v1l-1 1v1v1v1l-1 1v1v1l-1 1v1v1v1l-1 1v1v1l-1 1v1v1v1l-1 1v1v1l-1 1v1v1l-1 1v1v1v1l-1 1v1v1l-1 1v1v1v1l-1 1v1v1l-1 1v1v1v1l-1 1v1v1l-1 1v1v1l-1 1v1v1v1l-1 1v1v1l-1 1v1v1v1l-1 1v1v1l-1 1v1v1v1l-1 1v1v1l-1 1v1v1l-1 1v1v1v1l-1 1v1
v1l-1 1v1v1v1l-1 1v1v1l-1 1v1v1v1l-1 1v1v1l-1 1v1v1h58zM292 665v-442h-1h-1q-15 105 -60 442h62zM580 414h135v152h-135v-152zM886 131q-29 46 -79 63t-100.5 0t-78.5 -64q-8 -12 0 -23q45 -68 128 -72q84 3 130 71q8 12 0 25zM756.5 55q-26.5 0 -45 19t-18.5 45
t18.5 44.5t44.5 18.5q27 0 46 -18.5t19 -45t-19 -45t-45.5 -18.5zM330 638h158v43h-158v-43zM738 681h-158v-43h158v43zM500 658q1 -13 11 -23t23 -10q14 1 24 11t9 24q0 14 -10 23.5t-24 9.5t-23.5 -10.5t-9.5 -24.5zM752 149q2 -16 -3.5 -21.5t-23.5 -3.5q0 -18 8.5 -28
t23.5 -10q14 1 24 11.5t9 24.5q-2 14 -12.5 21.5t-25.5 5.5zM755 714v-503h20v439v64h-20z" />
    <glyph glyph-name="uniE623" unicode="&#xe623;" 
d="M669 35zM686 35zM675 36zM681 737q-91 0 -113 -1q-6 0 -11 -7q-33 -52 -102.5 -164t-105.5 -170q-6 -10 3 -25q18 -29 138 -222q56 -90 65 -104q6 -10 18 -10h107l-9 15q-152 245 -201 324q-8 12 0 23q45 73 200 322q1 1 11 19z" />
    <glyph glyph-name="uniE624" unicode="&#xe624;" 
d="M669 35zM686 35zM675 36zM346 737q91 0 113 -1q7 0 11 -7q33 -52 102.5 -164t105.5 -170q7 -10 -3 -25q-17 -28 -137 -222q-57 -90 -65 -104q-6 -10 -18 -10h-108l9 15q152 245 202 324q7 12 0 23q-46 73 -201 322q-1 1 -11 19z" />
    <glyph glyph-name="uniE625" unicode="&#xe625;" 
d="M338 472v170q0 40 25.5 65t65.5 25h340q40 0 65.5 -25t25.5 -65v-341q0 -40 -25 -65.5t-65 -25.5h-342q-40 0 -65 25.5t-25 65.5v171zM294 558v-43h-38q-48 -1 -48 -48q-1 -161 0 -339q0 -48 47 -48q177 -1 341 0q22 0 34 12t13 35v38h41q5 -42 -1.5 -67.5t-32.5 -43.5
q-24 -17 -49 -17q-123 -2 -352 -1q-35 0 -60 25.5t-25 60.5q-1 180 0 350q0 35 24.5 60t59.5 26h46z" />
    <glyph glyph-name="uniE626" unicode="&#xe626;" 
d="M514 732q-95 0 -175.5 -46.5t-127 -126.5t-46.5 -174.5t46.5 -175t126.5 -127.5t174 -47q95 0 175.5 46.5t127 126.5t47.5 174q0 95 -46.5 175.5t-127 127.5t-174.5 47zM514 95q-120 0 -204.5 85t-84.5 204t84.5 203.5t203.5 84t203.5 -84.5t84.5 -203t-84 -203.5
t-203 -85.5zM726 500.5q-18 16.5 -37 1.5q-3 -2 -13 -13q-166 -174 -211 -221q-11 -11 -22 0q-3 3 -35 32q-59 54 -68 62q-15 13 -32 5q-16 -8 -16 -26q-1 -13 12 -24q28 -26 132 -120q10 -9 20 -8q12 -1 23 11q36 38 76 80t89 93t76 79q8 9 10 12q14 20 -4 36.5z" />
    <glyph glyph-name="uniE627" unicode="&#xe627;" 
d="M492 141q-40 -1 -106 -1h-106q-11 0 -15 3.5t-4 14.5v450q0 10 3.5 14t13.5 4q168 -1 344 0q5 0 8 -3t3 -8v-252v-9q0 -4 3 -7t8 -3h3q5 0 8 3t3 7v7v270q0 15 -2.5 17.5t-16.5 2.5h-381q-16 0 -18.5 -3t-2.5 -18v-477q0 -28 4.5 -33t32.5 -5h237q7 0 9.5 7t-2.5 12
q-9 7 -26 7zM773 175q-6 12 -26 37q-9 11 -21 2q-2 -1 -6 -1t-6 1q-13 11 -23 -4q-1 -2 -4.5 -3.5t-4.5 -0.5q-20 13 -23 -13h-3h-1q-7 13 -8 14q-2 6 -5 18t-5 19q-6 18 -12 28q-4 7 -15 5q-5 -1 -5 -13q0 -5 4 -19q3 -8 13.5 -44t16.5 -56q5 -19 -1.5 -26t-26.5 -6
q-1 0 -4.5 1t-5.5 1q-24 -1 -31 -3q-5 -2 -6 -15q-1 -3 11 -6q6 -1 15.5 -2.5t17.5 -3t14 -4.5q12 -6 25 -13t28.5 -16.5t24.5 -14.5q5 -3 10 -1q33 12 63 24q8 3 9 9q10 63 -9 106zM585 480h-137h-139h-5q-2 0 -4 -0.5t-3.5 -1.5t-2.5 -3.5t-1 -6.5q0 -6 3 -8.5t5 -3
t8 -0.5h276q5 0 7.5 0.5t5 3t2.5 8.5q1 8 -3 10t-12 2zM586 395h-279q-14 0 -14 -12q0 -8 3.5 -10t11.5 -2h139h138q6 0 8.5 0.5t5 3.5t1.5 8q0 12 -14 12zM598 233q-12 19 -13 20q-17 21 -5 42q6 10 16.5 14.5t20.5 2.5q12 -3 20 -12.5t8 -22.5q1 -1 4 -23q12 18 7 37
t-23 28.5t-38 3t-28 -25.5q-9 -19 -0.5 -37.5t31.5 -26.5zM586 563h-137h-139h-5q-2 0 -4.5 -0.5t-4 -1.5t-2 -3.5t-0.5 -6.5q0 -6 2.5 -8.5t5.5 -2.5h7q196 0 276 -1q6 0 8.5 0.5t5 3.5t2.5 8q0 8 -3.5 10t-11.5 2zM304 209h101h100q4 0 6 0.5t4 3t1 8.5q0 12 -10 12h-202
q-6 0 -8.5 -2t-2.5 -10t2.5 -10t8.5 -2zM534 317h-229q-6 0 -8.5 -2t-2.5 -10t2.5 -10t9.5 -2h113h114q5 0 7 0.5t4 3.5t2 8q-1 7 -3.5 9.5t-8.5 2.5zM740 344v100l-1 243q1 10 1 21q0 16 -3 18.5t-19 2.5h-380q-14 0 -17 -2t-3 -15v-16v-19v-12q0 -6 7 -6h12q7 0 7 6v13v2
q2 10 10.5 17t19.5 7q166 0 324 1q10 0 13.5 -4t3.5 -14v-401v-20q1 -1 5 -4t8 -3q4 1 8 4t4 5v76zM884 237z" />
    <glyph glyph-name="uniE628" unicode="&#xe628;" 
d="M486 132q-41 -1 -108.5 -0.5t-108.5 -0.5q-10 0 -14.5 4t-4.5 15q1 203 0 458q0 10 3.5 14t14.5 4q170 -1 350 0q5 0 8 -3t3 -8v-257v-8q0 -5 3 -8t8 -3h4q4 0 7.5 3t3.5 8v6l-1 275q0 15 -2 17.5t-17 2.5h-388q-16 0 -18.5 -2.5t-2.5 -18.5v-486q0 -28 4.5 -33t32.5 -5
h241q8 0 10.5 7t-2.5 12q-9 7 -26 7zM580 478q-23 -1 -139 -1q-121 0 -141 1q-3 -1 -5.5 -0.5t-4.5 -0.5t-3.5 -2t-2.5 -3.5t-1 -6.5q0 -6 3 -8.5t5 -3t8 -0.5h281q6 0 8.5 0.5t5 3.5t2.5 8q0 8 -3.5 10.5t-12.5 2.5zM581 391h-283q-15 0 -15 -12q0 -8 3.5 -10t11.5 -2h141
h142q5 0 7.5 0.5t5 3t2.5 8.5q0 12 -15 12zM581 562h-140h-141q-2 0 -4.5 0.5t-5 -0.5t-4 -2t-2 -3.5t-0.5 -6.5q0 -6 2.5 -8.5t5 -3t8.5 -0.5h281q5 0 7.5 0.5t5 3t3.5 8.5q0 8 -4 10t-12 2zM294 201h97h98q3 0 5 0.5t3.5 3.5t1.5 9q0 12 -10 12h-196q-5 0 -7.5 -2.5
t-2.5 -9.5q0 -8 2.5 -10.5t8.5 -2.5zM518 311h-223q-6 0 -8.5 -2t-2.5 -9q-1 -9 2 -11t9 -2h111h111q5 0 7 0.5t4 3.5t1 8q0 8 -2.5 10t-8.5 2zM737 676v12h-12q5 0 8.5 -3.5t3.5 -8.5zM726 709q9 0 12 -10v11q0 16 -3 18.5t-19 2.5h-388q-14 0 -16.5 -2t-2.5 -15v-17v-19
v-12q0 -6 6 -6h13q6 0 6 6v13q0 1 1 2q2 11 10.5 18t20.5 7q169 -1 329 0q11 0 14.5 -4t3.5 -14v8q0 6 4 9.5t9 3.5zM738 373v351v-28v3q-3 10 -12 10q-6 0 -9.5 -3.5t-3.5 -9.5v-8l-1 -367q0 -10 9 -10h5q5 0 8.5 4t3.5 9v49zM802 54l-78 77v1q24 30 24 69q0 46 -32 78
t-77 32t-77.5 -32t-32.5 -77.5t32.5 -77.5t77.5 -32q38 0 67 23l1 -1l77 -77q6 -6 12 0l6 5q6 6 0 12zM638.5 114q-35.5 0 -61 25.5t-25.5 61.5t25.5 61.5t61 25.5t61 -25.5t25.5 -61.5t-25.5 -61.5t-61 -25.5z" />
    <glyph glyph-name="uniE629" unicode="&#xe629;" 
d="M711 701h-103q-5 0 -9 -4t-4 -9q0 -6 -3 -12q-9 -14 -33 -14q-1 -1 -3 -1h-74q-67 0 -73 1q-17 0 -27.5 7t-11.5 18v1q0 6 -4 9.5t-9 3.5h-103q-6 0 -10.5 -6t-4.5 -15v-552q0 -9 4.5 -15.5t10.5 -6.5h211q5 0 9 4t4 9v1q0 5 -4 9t-9 4h-180q-7 0 -13 4.5t-6 12.5v475
q0 21 10 21h406q7 0 12 -5.5t5 -13.5l1 -299q0 -5 3.5 -9t8.5 -4h2q5 0 9 4t4 9v352q0 9 -4.5 15t-11.5 6zM578 711q-10 11 -35 11q-23 0 -24 17q-1 12 -13 20q-18 12 -37 5.5t-23 -25.5q-3 -18 -24 -17h-9q-15 -2 -24 -9t-8 -18q0 -11 9.5 -18t25.5 -7h66h67h3q21 1 29 14
q8 14 -3 27zM482 718q-17 1 -16 17q0 17 17 17q16 -1 16 -18q-2 -16 -17 -16zM645 553h-237q-5 0 -8 3.5t-3 7.5v4q0 5 3 8t8 3h237q5 0 8 -3t3 -8v-4q0 -4 -3 -7.5t-8 -3.5zM645 443h-236q-5 0 -8 3t-3 8v3q0 5 3 8t8 3h236q4 0 7.5 -3t3.5 -8v-3q0 -5 -3.5 -8t-7.5 -3z
M492 331h-83q-4 0 -7.5 3.5t-3.5 7.5v4q0 5 3.5 8t7.5 3h83q5 0 8 -3t3 -8v-4q0 -4 -3 -7.5t-8 -3.5zM503 211h-95q-5 0 -8 3t-3 8v4q0 4 3 7t8 3h95q4 0 7.5 -3t3.5 -7v-4q0 -5 -3.5 -8t-7.5 -3zM356 566l19 18q6 6 0 12t-13 0l-18 -18l-18 18q-7 6 -13 0t0 -12l19 -18
l-19 -19q-6 -6 0 -12t13 0l18 18l18 -18q7 -6 13 0t0 12zM375 487q-6 6 -13 0l-18 -19l-18 19q-7 6 -13 0t0 -13l19 -18l-19 -18q-6 -7 0 -13t13 0l18 19l18 -19q7 -6 13 0t0 13l-19 18l19 18q6 7 0 13zM374 376q-6 6 -13 0l-18 -18l-18 18q-7 6 -13 0t0 -12l19 -19l-19 -18
q-6 -6 0 -12t13 0l18 18l18 -18q7 -6 13 0t0 12l-19 18l19 19q6 6 0 12zM374 257.5q-6 6.5 -13 0.5l-18 -19l-18 19q-7 6 -13 -0.5t0 -12.5l19 -18l-19 -19q-6 -6 0 -12t13 0l18 18l18 -18q7 -6 13 0t0 12l-19 19l19 18q6 6 0 12.5zM773 205q-6 14 -30 44q-11 13 -25 2
q-2 -2 -7 -1.5t-8 1.5q-16 13 -27 -5q-1 -2 -5 -3.5t-6 -0.5q-23 15 -28 -16h-4q-9 16 -9 17q-2 6 -6 21t-6 22q-8 23 -15 34q-5 8 -17 6q-6 -1 -6 -16q0 -5 5 -22q3 -9 15.5 -52.5t19.5 -66.5q6 -22 -2 -31t-31 -7q-2 0 -6 1t-6 1q-29 -1 -38 -4q-4 -1 -6 -12q1 -3 0 -6
q3 -4 13 -6q1 0 23.5 -4t32.5 -8q14 -7 29.5 -16t34 -20t28.5 -17q6 -4 13 -1q39 14 75 29q9 3 10 10q13 75 -11 127zM565 273q-14 24 -15 25q-21 25 -6 50q7 11 19.5 17t24.5 3q14 -3 23.5 -15t10.5 -27q0 -1 4 -27q14 21 8 43.5t-28 34.5q-21 12 -44.5 3.5t-33.5 -30.5
q-11 -23 -0.5 -45t37.5 -32z" />
    <glyph glyph-name="uniE62A" unicode="&#xe62a;" 
d="M711 701h-103q-5 0 -9 -4t-4 -9q0 -6 -3 -12q-9 -14 -33 -14q-1 -1 -3 -1h-74q-67 0 -73 1q-17 0 -27.5 7t-11.5 18v1q0 6 -4 9.5t-9 3.5h-103q-6 0 -10.5 -6t-4.5 -15v-552q0 -9 4.5 -15.5t10.5 -6.5h211q5 0 9 4t4 9v1q0 5 -4 9t-9 4h-180q-7 0 -13 4.5t-6 12.5v475
q0 21 10 21h406q7 0 12 -5.5t5 -13.5l1 -299q0 -5 3.5 -9t8.5 -4h2q5 0 9 4t4 9v352q0 9 -4.5 15t-11.5 6zM578 711q-10 11 -35 11q-23 0 -24 17q-1 12 -13 20q-18 12 -37 5.5t-23 -25.5q-3 -18 -24 -17h-9q-15 -2 -24 -9t-8 -18q0 -11 9.5 -18t25.5 -7h66h67h3q21 1 29 14
q8 14 -3 27zM482 718q-17 1 -16 17q0 17 17 17q16 -1 16 -18q-2 -16 -17 -16zM781 57l-86 87l-1 1q28 33 28 77q0 51 -36 86.5t-86.5 35.5t-86 -35.5t-35.5 -86.5t35.5 -86.5t86.5 -35.5q42 0 75 26q0 -1 1 -2l86 -86q7 -6 13 0l6 6q7 7 0 13zM599 125q-40 0 -68 28
t-28 68.5t28 68.5t68 28t68.5 -28t28.5 -68.5t-28.5 -68.5t-68.5 -28zM645 553h-237q-5 0 -8 3.5t-3 7.5v4q0 5 3 8t8 3h237q5 0 8 -3t3 -8v-4q0 -4 -3 -7.5t-8 -3.5zM645 443h-236q-5 0 -8 3t-3 8v3q0 5 3 8t8 3h236q4 0 7.5 -3t3.5 -8v-3q0 -5 -3.5 -8t-7.5 -3zM492 331
h-83q-4 0 -7.5 3.5t-3.5 7.5v4q0 5 3.5 8t7.5 3h83q5 0 8 -3t3 -8v-4q0 -4 -3 -7.5t-8 -3.5zM440 211h-32q-5 0 -8 3t-3 8v4q0 4 3 7t8 3h32q5 0 8 -3t3 -7v-4q0 -5 -3 -8t-8 -3zM356 566l19 18q6 6 0 12t-13 0l-18 -18l-18 18q-7 6 -13 0t0 -12l19 -18l-19 -19q-6 -6 0 -12
t13 0l18 18l18 -18q7 -6 13 0t0 12zM375 487q-6 6 -13 0l-18 -19l-18 19q-7 6 -13 0t0 -13l19 -18l-19 -18q-6 -7 0 -13t13 0l18 19l18 -19q7 -6 13 0t0 13l-19 18l19 18q6 7 0 13zM374 376q-6 6 -13 0l-18 -18l-18 18q-7 6 -13 0t0 -12l19 -19l-19 -18q-6 -6 0 -12t13 0
l18 18l18 -18q7 -6 13 0t0 12l-19 18l19 19q6 6 0 12zM374 257.5q-6 6.5 -13 0.5l-18 -19l-18 19q-7 6 -13 -0.5t0 -12.5l19 -18l-19 -19q-6 -6 0 -12t13 0l18 18l18 -18q7 -6 13 0t0 12l-19 19l19 18q6 6 0 12.5z" />
    <glyph glyph-name="uniE62B" unicode="&#xe62b;" 
d="M512 735q-95 0 -176 -47t-128 -128t-47 -176t47 -176t128 -128t176 -47t176 47t128 128t47 176t-47 176t-128 128t-176 47zM511.5 92.5q-120.5 0.5 -206 86t-85 206t86 206t206 85t206 -86t85 -206t-86 -206t-206 -85zM542 496v-127q0 -11 -4 -15.5t-15 -4.5h-250
q-11 0 -15.5 4.5t-4.5 15.5v21q0 10 4.5 14t14.5 4h202q6 0 7.5 2t1.5 8v205q0 11 4.5 15.5t15.5 4.5h22q17 0 17 -18v-129z" />
    <glyph glyph-name="uniE62C" unicode="&#xe62c;" 
d="M514 734q-94 0 -174 -46.5t-127 -126.5t-47.5 -174t46 -174.5t126.5 -127.5t174 -47t174.5 46t127.5 126t47 174q1 94 -45.5 174.5t-127 128t-174.5 47.5zM513.5 97q-120.5 0 -205 84.5t-84.5 204.5t85 204.5t205 84.5t204 -84.5t85 -204.5q0 -120 -84.5 -204.5
t-205 -84.5zM689 238q-2 -18 -17 -25q-17 -7 -31 5l-32 32q-70 70 -84 85q-10 10 -20 0q-16 -17 -112 -112q-16 -16 -32 -11q-16 6 -19 20.5t9 27.5l64 64l51 51q10 9 0 19q-23 22 -114 113q-15 15 -9 31q5 16 21 19q14 4 29 -11l110 -110q7 -7 11.5 -7.5t12.5 6.5
q24 26 111 113q14 14 30 9q17 -6 20 -23q3 -14 -13 -29l-110 -110q-6 -7 -6 -11t7 -11l64 -63l46 -47q12 -12 13 -25z" />
    <glyph glyph-name="uniE62D" unicode="&#xe62d;" 
d="M458 232v105v15v58h73v-28q23 19 50 32v297q0 11 -7.5 19t-18.5 8h-367q-11 0 -18.5 -8t-7.5 -19v-533q0 -11 7.5 -18.5t18.5 -7.5h281q-11 34 -11 70v10zM531 455h-73v73h73v-73zM212 683h319v-94h-319v94zM285 218h-73v73h73v-73zM285 337h-73v73h73v-73zM285 455h-73
v73h73v-73zM408 218h-73v73h73v-73zM408 337h-73v73h73v-73zM408 455h-73v73h73v-73zM668 410q-46 0 -87 -21q-28 -15 -50 -38q-51 -55 -51 -129v-4q1 -35 13 -66q21 -53 69 -86t106 -33q79 0 134 55.5t55 133.5t-55 133t-134 55zM727 220v-20h-48v-27h48v-20h-48v-40h-25
v40h-50v20h50v27h-50v20h42l-52 90h28q37 -67 45 -85q3 7 15 30l30 55h26l-52 -90h41z" />
    <glyph glyph-name="uniE62E" unicode="&#xe62e;" 
d="M391.5 284q-31.5 0 -53.5 -22t-22 -53t22 -53t53.5 -22t53.5 22t22 53t-22 53t-53.5 22zM391.5 172q-15.5 0 -26.5 11t-11 26.5t11 26.5t26.5 11t26.5 -11t11 -26.5t-11 -26.5t-26.5 -11zM958 340v-80q0 -15 -10.5 -25.5t-25.5 -10.5h-39q-5 36 -33 60.5t-65 24.5
t-65 -24.5t-34 -60.5h-196q-6 36 -33.5 60.5t-65 24.5t-65.5 -24.5t-33 -60.5h-49q-15 0 -25.5 10.5t-10.5 25.5v80h750zM785 284q-31 0 -53 -22t-22 -53t22 -53t53 -22t53 22t22 53t-22 53t-53 22zM784.5 172q-15.5 0 -26.5 11t-11 26.5t11 26.5t27 11t27 -11t11 -26.5
t-11.5 -26.5t-27 -11zM944 421l-142 141q-15 14 -34 14h-72v27q0 15 -10.5 25.5t-26.5 10.5h-415q-15 0 -25.5 -10.5t-10.5 -25.5v-6l-147 -17l261 -34l-265 -26l264 -37l-264 -23l151 -29v-71h750v27q0 20 -14 34zM882 416h-138q-6 0 -6 6v106q0 6 6 6h26q3 0 4 -1
l112 -107q3 -3 1.5 -6.5t-5.5 -3.5z" />
    <glyph glyph-name="uniE62F" unicode="&#xe62f;" 
d="M514 479q19 0 36 -8q1 27 17 49q-11 2 -22 2h-69q-11 0 -22 -2q17 -24 17 -52q20 11 43 11zM511 610zM428 610q0 34 24 58t58.5 24t58.5 -24t24 -58t-24 -58.5t-58.5 -24.5t-58.5 24.5t-24 58.5zM640 387q31 0 53 22.5t22 53.5t-22 53.5t-53 22.5t-53.5 -22t-22.5 -53
q39 -24 44 -70q15 -7 32 -7zM381.5 539q-31.5 0 -53.5 -22.5t-22 -53.5t22 -53.5t53 -22.5q22 0 41 12q5 37 35 60v4q0 31 -22 53.5t-53.5 22.5zM689 540q39 -24 44 -69q15 -8 32 -8q31 0 53 22.5t22 54t-22 53.5t-53 22q-32 0 -54 -22t-22 -53zM514 385zM439 384.5
q0 31.5 22 54t53.5 22.5t53.5 -22.5t22 -54t-22 -53.5t-53.5 -22t-53.5 22t-22 53.5zM672 382h-64q-1 -38 -29 -65q36 -11 59 -41.5t23 -68.5v-24q65 2 102 21l5 2h1v79q0 40 -28.5 68.5t-68.5 28.5zM797 458h-64q-1 -38 -29 -65q36 -10 59 -40.5t23 -69.5v-24q65 2 102 21
l5 3h1v78q0 40 -28.5 68.5t-68.5 28.5zM449 317q-27 27 -28 65h-7h-65q-40 0 -68.5 -28.5t-28.5 -68.5v-79l1 -1l5 -1q56 -18 109 -21v24q0 38 23 68.5t59 41.5zM546 304h-64q-40 0 -68.5 -28.5t-28.5 -68.5v-79v-1l6 -2q68 -21 132 -21q72 0 115 22l5 2v79q0 40 -28 68.5
t-69 28.5zM255 461q17 0 32 7q5 45 44 70q0 31 -22 52.5t-54 21.5q-31 0 -53 -22t-22 -53.5t22 -53.5t53 -22zM316 391q-28 26 -29 65h-64q-40 0 -68.5 -28.5t-28.5 -68.5v-79h1l5 -2q38 -19 102 -22v25q0 38 23 68.5t59 41.5zM344 546q20 8 36 8q24 0 44 -11q5 4 8 9
q-19 26 -19 59q0 22 9 41q-21 19 -50 19q-26 0 -46 -15.5t-27 -39.5q41 -24 45 -70zM589 557q4 -7 10 -12q19 9 39 9q17 0 35 -6q2 24 15.5 43.5t35.5 29.5q-8 23 -27.5 36.5t-43.5 13.5q-32 0 -54 -23q7 -18 7 -37q0 -30 -17 -54z" />
    <glyph glyph-name="uniE630" unicode="&#xe630;" 
d="M584 95l-18 -4q-11 -2 -17.5 -11.5t-4.5 -20.5q2 -12 11 -18q10 -7 22 -5q10 2 20 5q12 2 18 12t3 21.5t-13 17.5t-21 3zM792 472q3 -9 10 -14q12 -9 25 -4q11 4 16.5 14t1.5 21q-3 10 -7 20q-5 11 -15.5 15.5t-21.5 0.5t-15.5 -15t-0.5 -21q4 -9 7 -17zM675 135
q-7 -5 -15 -9q-10 -6 -13 -17t3 -21q3 -6 8 -9q14 -11 30 -2q9 6 18 11q10 7 12 18.5t-4 21t-17.5 12t-21.5 -4.5zM862 393q0 12 -8.5 20t-20 7.5t-19.5 -9t-8 -20.5q1 -9 0 -18q0 -15 12 -23q7 -5 16 -6q12 0 20 8t9 20q0 11 -1 21zM787 209q-9 7 -20.5 5.5t-18.5 -10.5
q-6 -8 -11 -14q-8 -9 -7 -20.5t10 -19.5l2 -2q9 -6 19.5 -4.5t17.5 9.5t14 17t5 20.5t-11 18.5zM828 310.5q-11 3.5 -21 -2t-14 -16.5q-3 -8 -6 -17q-8 -20 10 -33q3 -2 6 -3q11 -4 22 1t15 15q3 10 7 21q3 11 -2.5 21t-16.5 13.5zM461 91q-37 7 -72 23h-1q-8 4 -16 9
q-14 8 -28 17q-65 46 -97.5 117t-25.5 149t53 143q29 42 72 71q0 1 1 1q73 50 162 51.5t167 -48.5l-22 -32q-5 -7 -2.5 -11t10.5 -3l96 8q8 1 12 7t2 14l-26 92q-2 8 -7 8.5t-9 -5.5l-22 -32q-116 78 -254 54q-14 -2 -27 -6h-1q-119 -31 -192 -129l-1 -1q-3 -3 -5 -7
q-4 -5 -8 -11v-1q-61 -94 -56 -204v-1q1 -11 2 -21v-2q1 -11 3 -21q19 -110 98 -188v0q21 -21 45 -38q64 -45 139 -58q12 -2 21.5 4.5t11.5 18t-4.5 21t-18.5 11.5zM496 607q-9 0 -16 -7t-7 -16v-226l207 -108q5 -2 11 -2q14 0 20 12q4 9 1.5 18t-11.5 13l-182 94v199
q0 9 -7 16t-16 7z" />
    <glyph glyph-name="uniE631" unicode="&#xe631;" 
d="M513 739q-96 0 -177.5 -47t-128.5 -128.5t-47 -177.5t47 -177t128.5 -128.5t177.5 -47.5t177 47.5t128.5 128.5t47.5 177t-47.5 177.5t-128.5 128.5t-177 47zM757 477q-7 -8 -44 -46q-13 -15 -103 -108.5t-137 -143.5q-13 -14 -27 -13q-11 -1 -22 8q-29 27 -82.5 75.5
t-69.5 63.5q-20 18 -10 41q7 16 23 18.5t31 -10.5q9 -8 74 -67q40 -36 44 -41q10 -10 21 1q55 58 242 254q11 12 13 14q11 9 23.5 8.5t22 -9.5t10 -21.5t-8.5 -23.5z" />
    <glyph glyph-name="uniE632" unicode="&#xe632;" 
d="M513 739q-96 0 -177.5 -47t-128.5 -128.5t-47 -177.5t47 -177t128.5 -128.5t177.5 -47.5t177 47.5t128.5 128.5t47.5 177t-47.5 177.5t-128.5 128.5t-177 47zM701 202q-10 -13 -25 -13t-28 14q-88 87 -124 124q-7 8 -12 7.5t-12 -7.5q-16 -16 -125 -126q-18 -18 -39 -9
q-19 8 -20 26q0 18 14 32q121 121 126 125q10 10 0 20q-43 43 -127 126q-24 24 -6 47q10 13 25 13t28 -13q88 -88 124 -125q7 -7 12 -7t12 8l124 124q24 24 47 6q13 -10 13 -24.5t-12 -26.5q-83 -84 -126 -126q-7 -7 -7 -12t7 -12q34 -33 125 -124q24 -24 6 -47z" />
    <glyph glyph-name="uniE633" unicode="&#xe633;" 
d="M513 735.5q-95 0.5 -176 -46.5t-128 -128t-47 -176t47 -175.5t127.5 -127.5t176 -47t176 46.5t127.5 127.5t47 176t-46.5 175.5t-127.5 127.5t-176 47.5zM689 234h-177h-176q-18 0 -18 18v230q0 17 18 17h66q6 0 8 6t7.5 19.5t7.5 20.5q3 10 14 10h148q10 0 14 -11
q2 -6 6.5 -19t7.5 -20q2 -6 8 -6q17 1 67 1q18 0 18 -18v-230q0 -18 -19 -18zM508 482q-42 -3 -69.5 -34.5t-22.5 -76.5q4 -36 33 -61t68 -24q42 3 69 33t25 70q-3 42 -33 68.5t-70 24.5zM508 482q-42 -3 -69.5 -34.5t-22.5 -76.5q4 -36 33 -61t68 -24q42 3 69 33t25 70
q-3 42 -33 68.5t-70 24.5z" />
    <glyph glyph-name="uniE634" unicode="&#xe634;" 
d="M513 733q-95 0 -175.5 -46.5t-127.5 -127t-47 -175.5t47 -175.5t127.5 -127.5t175.5 -47t175.5 47t127.5 127.5t47 175.5t-47 175.5t-127.5 127t-175.5 46.5zM688 226h-177h-177q-10 0 -14.5 4t-4.5 15v296q0 18 19 18h355q18 0 18 -18v-296q0 -11 -4 -15t-15 -4z
M683 274q0 6 -4 10q-50 49 -104 104q-4 4 -7 0l-68 -68q-4 -4 0 -8q9 -8 21 -21q8 -8 1 -15q-7 -6 -14 2q-1 0 -3 3l-80 80q-5 5 -9 0q-47 -47 -58 -57q-22 -19 -18 -46q1 -7 8 -7h163h149q2 0 7 -0.5t8.5 -0.5t5.5 2t2.5 5.5t-0.5 8.5t0 8zM426 428q15 0 25.5 10.5
t10.5 25.5q0 14 -10.5 24.5t-25 10.5t-25.5 -10.5t-11 -24.5q0 -15 11 -25.5t25 -10.5z" />
    <glyph glyph-name="uniE635" unicode="&#xe635;" 
d="M889 66q-32 68 -77 121.5t-95 89t-113.5 61.5t-125 41t-136.5 25v-134l-1 1l-1 1l-1 1l-1 1l-1 1l-1 1l-1 1l-1 1l-1 1l-1 1l-1 1l-1 1l-1 1l-1 1l-1 1l-1 1l-1 1l-1 1l-1 1l-1 1l-1 1l-1 1l-2 1l-1 1l-1 1l-1 1l-1 1l-1 1l-1 1l-1 1l-1 1l-1 1l-1 1l-1 1l-1 1l-1 2l-1 1
l-1 1l-1 1l-1 1l-1 1l-1 1l-1 1l-1 1l-1 1l-1 1l-1 1l-1 1l-1 1l-1 1l-1 1l-1 1l-1 1l-1 1l-1 1l-1 1l-1 1l-1 1l-1 1l-1 1l-1 1l-1 1l-1 1l-1 1l-1 1l-1 1l-1 1l-1 1l-1 1l-1 1l-1 1l-1 1l-1 1l-1 1l-1 1l-1 1l-1 1l-1 1l-1 1l-1 1l-1 1l-1 1l-1 1l-1 1l-1 1l-1 1l-1 1
l-1 1l-1 1l-1 1l-1 1l-1 1l-1 1l-1 1l-1 1l-1 1l-1 1l-2 1l-1 1l-1 1l-1 1l-1 1l-1 1l-1 1l-1 1l-1 1l-1 1l-1 1l-1 1l-1 1l-1 1l-1 2l-1 1l-1 1l-1 1l-1 1l-1 1l-1 1l-1 1l-1 1l-1 1l-1 1l-1 1l-1 1l-1 1l-1 1l-1 1l-1 1l-1 1l-1 1l-1 1l-1 1l-1 1l-1 1l-1 1l-1 1l-1 1
l-1 1l-1 1l-1 1l-1 1l-1 1l-1 1l-1 1l-1 1l-1 1l-1 1l-1 1l-1 1l-1 1l-1 1l-1 1l-1 1l-1 1l-1 1l-1 1l-1 1l-1 1l-1 1l-1 1l-1 1l-1 1l-1 1l-1 1l-1 1l-1 1l-1 1l-1 1l-1 1l-1 1l-1 1l-1 1l-1 1l-1 1l-1 1l-1 1l-1 1l-1 1l-1 1l-1 1l-1 1l-1 1l-1 1l-1 1l-1 1l-1 1l-1 1
l-1 1l-1 1l-1 1l-1 1l-1 1l-1 1l-1 1l-1 1l-1 1l-1 1l-1 1l-1 1l-1 1l-1 1l-1 1l-1 1l-1 1l-1 1l-1 1l-1 1l-1 1l-1 1l-1 1l-1 1l-1 1l-1 1l-1 1l-1 1l-2 2h1l1 1l1 1l1 1l1 1l1 1l1 1l1 1l1 1l1 1l1 1l1 1l1 1l1 1l1 1l1 1l1 1l1 1l1 1l1 1l1 1l1 1l1 1l1 1l1 1l1 1l1 1
l1 1l1 1l1 1l1 1l1 1l1 1l1 1l1 1l1 1l1 1l1 1l1 1l1 1v1l1 1l1 1l1 1l1 1l1 1h1l1 1l1 1l1 1l1 1l1 1l1 1l1 1l1 1l1 1l1 1l1 1l1 1l1 1l1 1l1 1l1 1l1 1l1 1l1 1l1 1l1 1l1 1l1 1l1 1l1 1l1 1l1 1l1 1l1 1l1 1l1 1l1 1l1 1l1 1l1 1l1 1l1 1l1 1l1 1l1 1l1 1l1 1l1 1l1 1
l1 1l1 1l1 1l1 1l1 1l1 1l1 1l1 1l1 1l1 1l1 1l1 1l1 1l1 1l1 1l1 1l1 1l1 1l1 1l1 1l1 1l1 1l1 1l1 1l1 1l1 1l1 1l1 1l1 1l1 1l1 1l1 1l1 1l1 1l1 1l1 1l1 1l1 1l1 1l1 1l1 1l1 1l1 1l1 1l1 1l1 1l1 1l1 1l1 1l1 1l1 1l1 1l1 1l1 1l1 1l1 1l1 1l1 1l1 1l1 1l1 1l1 1l1 1
l1 1l1 1l1 1l1 1l1 1l1 1l1 1l1 1l1 1l1 1l1 1l1 1l1 1l1 1l1 1l1 1l1 1l1 1l1 1l1 1l1 1l1 1l1 1l1 1l1 1l1 1l1 1l1 1l1 1l1 1l1 1l1 1l1 1l1 1l1 1l1 1l1 1l1 1l1 1l1 1l1 1l1 1l1 1l1 1l1 1l1 1l1 1l1 1l1 1l1 1l1 1l1 1l1 1l1 1l1 1l1 1l1 1l1 1l1 1l1 1l1 1l1 1l1 1
l1 1v-126q17 -4 52 -10.5t61 -11.5t50 -12q183 -48 292 -165q132 -139 94 -314z" />
    <glyph glyph-name="uniE636" unicode="&#xe636;" 
d="M512 653zM430 653q0 34 24 58t58 24t58 -24t24 -58t-24 -58t-58 -24t-58 24t-24 58zM512 384zM430 384q0 34 24 58t58 24t58 -24t24 -58t-24 -58t-58 -24t-58 24t-24 58zM512 115zM430 115q0 34 24 58t58 24t58 -24t24 -58t-24 -58t-58 -24t-58 24t-24 58z" />
    <glyph glyph-name="uniE637" unicode="&#xe637;" 
d="M241 382v326q0 13 13 13h503q12 0 12 -13v-653q0 -12 -12 -12h-504q-12 0 -12 12v327zM265 696v-627h481v627h-481zM650 224q4 -7 12 -6q6 1 10 -4q47 -46 49 -48q11 -11 0 -23q-12 -11 -23 0l-48 48q-6 6 -5 15q1 4 -3 6q-1 1 -4 -1q-21 -17 -46 -21q-38 -6 -70 18
q-27 22 -33 57q-7 40 18 71q22 28 56 33q36 6 66 -14q31 -21 39 -57q8 -39 -16 -71zM505 280q0 -30 21.5 -52t52 -22t52 21.5t21.5 52t-21 52t-51.5 22t-52.5 -21t-22 -52.5zM498 526h-149q-10 0 -16 4q-6 3 -5 10t8 9q3 1 8 1h234h70q11 0 15 -5q6 -6 0 -13q-4 -6 -13 -6
h-152zM494 466h-145q-9 0 -11 1q-6 2 -10 7q-2 3 1.5 9t8.5 6q2 0 11 0.5t14 0.5h280q6 0 14 -1q9 -2 9 -12q-1 -4 -4 -7t-7 -3q-10 -1 -16 -1h-145zM497 588h-143q-5 0 -16 1q-4 1 -7 4t-3 7q1 10 11 11h26h175h113q5 0 9 -3.5t4 -8.5q-1 -8 -10 -10q-7 -1 -15 -1h-144z
M415 404h-71q-11 0 -15 7q-3 5 0.5 11t9.5 6q11 1 18 1h129q5 0 15 -4q6 -2 6 -9q-1 -7 -7 -9q-9 -3 -15 -3h-70zM332 286v2l-2 1l-1 1q-3 5 0 12l2 2q5 3 6 3q11 1 18 1q50 1 87 0q11 0 19 -2q4 -2 6 -8q2 -5 -3.5 -10t-14.5 -5h-103q-1 0 -13 3h-1zM329 290l1 -1l2 -2
l-2 2zM331 304l-1 -1q0 -1 -1 -1zM332 286h1h-1z" />
    <glyph glyph-name="uniE638" unicode="&#xe638;" 
d="M247 383v326q0 13 13 13h503q13 0 13 -13v-653q0 -12 -13 -12h-504q-12 0 -12 12v327zM752 70v627h-481v-627h481zM479 141q8 26 8 28q10 34 11 39q3 9 12 18q52 57 97 105q11 13 20 17q23 10 40 -8.5t4 -41.5q-4 -6 -15 -17q-9 -11 -20.5 -23.5t-25 -27t-21.5 -22.5
q-21 -23 -24 -27q-10 -12 -32 -20q-3 -1 -51 -19zM545 174q-1 2 -15.5 15t-22.5 19q-9 -30 -11 -39q-1 -1 0 -2q7 -6 9 -8q1 0 7 2q1 0 5 2q3 1 28 11zM657 292q-7 7 -21 20t-20 18q-1 -2 -3.5 -5t-4.5 -5q7 -5 20 -17.5t20 -18.5q3 2 9 8zM502 467h-143h-13q-12 2 -12 12
q1 11 13 11q16 1 23 1h279q6 0 14 -1q10 -2 9 -11.5t-11 -10.5t-16 -1h-143zM503 551h152q9 0 13 -4q5 -5 3 -10q-2 -7 -9 -9q-3 -1 -7 -1h-300q-7 0 -15 3q-7 3 -6 11t9 9q4 1 7 1h153zM507 612h152q12 0 13 -10q0 -10 -9 -12q-9 -1 -14 -1h-291q-6 0 -14 1q-11 2 -10 11
q2 11 12 11h161zM421 405h-71q-9 0 -12 4q-6 5 -3 12q2 7 10 8t18 1h129q6 0 14 -3q7 -2 7 -9t-7 -10q-8 -3 -14 -3h-71zM404 309h49q5 0 12 -1q9 -3 9 -10q0 -9 -8 -11q-10 -3 -17 -3h-92q-7 0 -13 1q-11 3 -10 14q1 9 12 10h58z" />
    <glyph glyph-name="uniE639" unicode="&#xe639;" 
d="M528 200v60v212q0 8 4 14q18 26 77 111q0 1 5 7l113 -71q15 16 43.5 45.5t42.5 44.5q41 -38 51 -47q2 -2 2 -8v-186q0 -6 -6 -9q-103 -54 -325 -170zM693 406l4 2q8 5 8.5 8.5t-3.5 11t-3 11t9 7.5q7 3 8 3q3 3 4 7q3 10 -10 14h-3q-8 3 -10 6t1.5 11t2.5 11.5t-8 6.5
q-5 2 -15 -3q-9 -3 -13 -2t-9 10q-4 7 -8 7q-9 2 -13 0t-7 -11q-6 -12 -18 -8q-12 3 -13 3q-6 -2 -14 -9q-2 -2 1 -8q6 -12 5 -15t-13 -8q-7 -3 -8 -4q-3 -3 -4 -7q-3 -10 11 -13q2 0 3 -1q10 -2 11.5 -5.5t-2.5 -13.5q-4 -8 -3.5 -10.5t8.5 -6.5q5 -3 13 1q14 6 17.5 4.5
t12.5 -13.5q2 -4 8 -5q14 -2 19 13q4 13 18 9zM842 417l-5 7q-7 7 2 13l2 1q2 2 3 2.5t1.5 2.5t0 4.5t-1.5 4t-2.5 2t-3.5 0.5h-4q-9 2 -8 11q1 7 -2 11q-5 5 -13 -1q-9 -8 -16 2q-5 7 -11.5 5.5t-7.5 -9.5q-2 -10 -12 -8q-6 1 -7 1q-6 -2 -8 -6q-2 -3 1 -7q5 -8 4.5 -10
t-8.5 -8q-6 -4 -4 -8q0 -2 8 -7q1 -1 2 -1h2q10 -1 8 -11q-2 -7 2 -11q5 -6 13 1q10 9 18 -3q4 -6 11 -5q6 2 7 10q2 12 13 9q12 -3 16 8zM515 479v-279q-10 5 -11 5q-48 25 -102.5 53t-121 62t-103.5 53q-7 4 -7 9v187l1 3q252 -67 344 -93zM433 474v-35q0 -3 -0.5 -10
t-0.5 -12t2.5 -8t6.5 -5t11 -4t9 -3q8 -3 17 -6q1 0 17 -6v65q0 5 -3 6q-12 4 -59 18zM358 495v-58q0 -3 5 -5q4 -2 25 -10q2 0 23 -8v60q0 5 -4 6q-9 3 -49 15zM292 514v-52q0 -4 4 -6q7 -3 42 -15v56q0 4 -4 5zM235 530q0 -40 1 -49q0 -4 2 -5q7 -3 38 -14v52q0 4 -5 6
q-5 1 -36 10zM220 483q0 40 -1 48q0 5 -3 6q-5 2 -32 10v-46q0 -5 3 -6q5 -2 33 -12zM125 391q56 -30 58 -31q252 -135 325 -174q12 -7 25 0q81 44 353 189l8 4v-39q0 -2 -6 -5q-50 -30 -209 -124q-8 -4 -159 -93q-137 81 -147 87q-195 115 -239 141q-10 5 -9 14v31z
M173 582q66 56 82 69q4 3 14 2q14 -2 80 -11q142 -20 241 -33l13 -2l-5 -8q-10 -15 -35.5 -50t-38.5 -54q-5 -6 -10 -5q-68 18 -338 90zM807 625q-46 -45 -83 -81q-26 16 -27 17q-58 37 -66 42q-15 10 -34 13q-65 7 -121 16q214 -5 331 -7zM644 432q-17 1 -23 13q-5 10 2 19
q11 13 27 10q21 -3 19 -22q-1 -8 -8.5 -14t-16.5 -6zM794 453q7 0 12.5 -5t5.5 -11t-5.5 -10.5t-12 -5t-12 4.5t-5.5 11t5.5 10.5t11.5 5.5z" />
    <glyph glyph-name="uniE63A" unicode="&#xe63a;" 
d="M845.5 384q-0.5 -90 -45 -166t-120.5 -120.5t-166 -44.5t-166.5 44.5t-121 121t-44.5 166.5t44.5 166.5t121 120.5t166.5 44t166.5 -44.5t121 -121t44 -166.5zM226 384q0 -119 84.5 -203t203.5 -84t203 84.5t84 203.5t-84 203t-203 84t-203.5 -84.5t-84.5 -203.5z
M539 464q18 -4 19 -4q21 -8 19 -34q-1 -14 -8 -31q-5 -14 -14.5 -38t-17 -44t-14.5 -37q-3 -8 -4 -15q-1 -6 2.5 -9t8.5 0q8 3 20 15q5 4 14 13.5t13 13.5q4 5 8 2q7 -4 3 -11q-6 -11 -11 -17q-34 -38 -78 -56q-16 -6 -32 -7q-18 -1 -29 15q-13 19 -7 41q5 20 10 30
q3 7 43 99q6 15 8 21q2 5 2 9q0 9 -9 7q-7 -2 -11 -6q-7 -7 -18 -22q-3 -4 -7.5 -11t-5.5 -8l-4 -4t-7 -2q-6 4 -5 8q3 9 6 15q24 48 83 63q1 1 23 4zM523 520q1 15 11 27t25 16q22 5 37 -7q11 -8 13.5 -21.5t-3.5 -26.5q-7 -13 -20.5 -19.5t-27.5 -5.5q-23 3 -31 21
q0 1 -4 16z" />
    <glyph glyph-name="uniE63B" unicode="&#xe63b;" 
d="M512.5 732.5q94.5 -0.5 174.5 -47t127 -126.5t46.5 -175t-47 -175t-127 -126.5t-175 -46.5t-174.5 46.5t-126.5 127t-46.5 175t46.5 175t127 127t175 46zM712 452q2 18 -8 40.5t-25 33.5q-14 10 -36 13.5t-47.5 -4t-40.5 -26.5q-22 -27 -17.5 -59.5t32.5 -51.5
q13 -9 43 -22q35 -16 49 -29q17 -15 17 -33q0 -24 -15.5 -38t-40.5 -13q-22 1 -36 15t-15 36v14h-42v-16q0 -28 16.5 -49.5t42.5 -29.5q41 -12 80 3q43 16 51.5 63t-25.5 75q-18 14 -36 24q-8 4 -26 12t-26 12q-15 8 -22 19q-9 14 -5 30.5t17 25.5q17 10 36.5 6t28.5 -19
q1 -2 11 -32h39zM453 541q-33 0 -39 -1q-3 0 -5 -3q-59 -93 -82 -129q-29 -46 -22 -94q6 -42 29 -63q26 -22 66 -23q42 -1 65 18q42 35 38 98q-2 35 -21 54q-33 36 -78 30q-1 0 -24 -4q15 24 73 117zM342 328q1 23 11 42q9 17 26.5 24t38.5 2q41 -9 45 -50q4 -38 -13 -62
q-21 -29 -58 -21t-47 44q0 1 -3 21z" />
    <glyph glyph-name="uniE63C" unicode="&#xe63c;" 
d="M640 232q-64 -55 -142.5 -68t-149.5 13.5t-119 85.5q-70 82 -65 192t81 190q75 77 185.5 83.5t196.5 -61.5q57 -45 86 -115t17.5 -151.5t-69.5 -147.5q17 -15 19 -17q4 -3 10 -2q23 3 39 -13l115 -115q19 -19 12 -44q-6 -19 -25.5 -25t-35.5 6q-5 3 -16 14l-103 103
q-21 21 -17 45q1 4 -3 9q-1 2 -16 18zM448 682q-98 -1 -167.5 -71t-69.5 -167q1 -99 71 -168t168 -68t166.5 70t68.5 167t-69.5 167.5t-167.5 69.5zM422 520q-46 14 -74 -7.5t-24 -68.5q22 31 63 23q24 -4 37 -23.5t12 -47.5q-1 -38 -30.5 -58.5t-64.5 -8.5q-32 11 -43 48
q-18 66 8 124q14 32 41.5 45.5t62.5 5.5q14 -3 12 -16v-16zM322 401q10 -29 11 -30q11 -21 35.5 -19.5t31.5 23.5q5 14 4 31q-3 39 -43 37q-15 -1 -26 -13t-13 -29zM472 370q46 -15 50 -16q14 -3 33 2q17 5 21 20.5t-8 27.5q-6 5 -27 18q-5 3 -20.5 11.5t-23.5 13.5
q-29 19 -25 54q3 31 37 45q35 15 82 3q9 -2 8 -12v-25q-27 16 -55 14h-10q-26 -7 -30 -25q-4 -21 19 -34q4 -2 18.5 -9.5t21.5 -11.5q19 -11 28 -19q22 -22 17 -51.5t-33 -41.5q-44 -19 -96 1q-6 2 -7 10v25z" />
    <glyph glyph-name="uniE63D" unicode="&#xe63d;" 
d="M511 733q95 0 175.5 -46.5t127.5 -127t47 -176t-47 -176t-127.5 -127.5t-175.5 -47t-176 47t-128 128t-46 175q0 96 46.5 176.5t127.5 127t176 46.5zM429 293h-101v-101h101v101zM429 474v101h-101v-101h101zM467 506h233v36h-233v-36zM700 260h-233v-35h233v35zM700 406
h-233v-36h233v36zM321 387q24 -21 49 -42q49 49 76 75q-8 9 -17 17l-1 -1l-1 -1l-1 -1l-1 -1l-1 -1l-1 -1l-1 -1l-1 -1l-1 -1l-1 -1l-1 -1l-1 -1l-1 -1l-1 -1l-1 -1l-1 -1l-1 -1l-1 -1l-1 -1l-1 -1l-1 -1l-1 -1l-1 -1l-1 -1l-1 -1l-1 -1l-1 -1l-1 -1l-1 -1l-1 -1l-1 -1
l-1 -1l-1 -1l-1 -1l-1 -1l-1 -1l-1 -1l-1 -1l-1 -1l-1 -1l-1 -1l-1 -1l-1 -1l-1 -1l-1 -1l-1 -1l-1 -1l-1 -1l-1 -1l-1 -1l-1 -1l-1 -1l-1 -1l-1 -1l-1 -1l-1 -1l-1 -1l-1 -1l-2 -2q-14 13 -32 28q-10 -10 -16 -18z" />
    <glyph glyph-name="uniE63E" unicode="&#xe63e;" 
d="M151 676q209 -3 235 -3h100q0 9 1 31t2 34h49v-64h337v-98q-7 -1 -21.5 -2t-21.5 -1v-384h-249q-2 -3 -3 -6l153 -114q-3 -4 -25 -36q-156 114 -180 133q-19 14 -39 -1q-24 -18 -178 -132q-5 7 -13.5 19t-13.5 17l1 1l1 1h1l1 1l1 1h1l1 1l1 1l1 1h1l1 1l1 1l1 1h1l1 1
l1 1h1l1 1l1 1l1 1h1l1 1l1 1h1l1 1l1 1l1 1h1l1 1v1l1 1h1l1 1l1 1h1l1 1l1 1l1 1h1l1 1l1 1h1l1 1l1 1l1 1h1l1 1l1 1h1l1 1l1 1l1 1h1l1 1l1 1l1 1h1l1 1l1 1h1l1 1l1 1l1 1h1l1 1l1 1h1l1 1l1 1l1 1h1v1l1 1l1 1h1l1 1l1 1h1l1 1l1 1l1 1h1l1 1l1 1l1 1h1l1 1l1 1h1l1 1
l1 1l1 1h1l1 1l1 1l1 1h1l1 1l1 1h1l1 1l1 1l1 1h1l1 1l1 1l1 1h1l1 1l1 1h1l1 1l1 1l1 1h1l1 1l1 1l1 1h1l1 1l1 1l1 1h1l1 1l1 1l1 1h1l1 1l1 1h1l1 1l1 1l1 1h1l1 1l1 1l1 1h1l1 1l1 1h1l1 1l1 1l1 1h1l1 1l1 1l1 1h1l1 1l1 1h1l1 1l1 1l1 1h1l1 1l1 1l1 1h1l1 2h-247
v387h-45v102zM237 230h551v342h-551v-342zM478 416h-87v-86q-36 -2 -61.5 21.5t-27.5 58.5q-2 39 22.5 66t61.5 29t63 -23t29 -66zM423 304v85h83q4 -34 -21 -59.5t-62 -25.5zM579 478h110v-28h-110v28zM579 391v26h110q0 -4 0.5 -13t1.5 -13h-112zM579 330v27h110v-27h-110
z" />
    <glyph glyph-name="uniE63F" unicode="&#xe63f;" 
d="M486 132q-41 -1 -108.5 -0.5t-108.5 -0.5q-10 0 -14.5 4t-4.5 15q1 203 0 458q0 10 3.5 14t14.5 4q170 -1 350 0q5 0 8 -3t3 -8v-257v-8q0 -5 3 -8t8 -3h4q4 0 7.5 3t3.5 8v6l-1 275q0 15 -2 17.5t-17 2.5h-388q-16 0 -18.5 -2.5t-2.5 -18.5v-486q0 -28 4.5 -33t32.5 -5
h241q8 0 10.5 7t-2.5 12q-9 7 -26 7zM580 478q-23 -1 -139 -1q-121 0 -141 1q-3 -1 -5.5 -0.5t-4.5 -0.5t-3.5 -2t-2.5 -3.5t-1 -6.5q0 -6 3 -8.5t5 -3t8 -0.5h281q6 0 8.5 0.5t5 3.5t2.5 8q0 8 -3.5 10.5t-12.5 2.5zM581 391h-283q-15 0 -15 -12q0 -8 3.5 -10t11.5 -2h141
h142q5 0 7.5 0.5t5 3t2.5 8.5q0 12 -15 12zM581 562h-140h-141q-2 0 -4.5 0.5t-5 -0.5t-4 -2t-2 -3.5t-0.5 -6.5q0 -6 2.5 -8.5t5 -3t8.5 -0.5h281q5 0 7.5 0.5t5 3t3.5 8.5q0 8 -4 10t-12 2zM294 201h97h98q3 0 5 0.5t3.5 3.5t1.5 9q0 12 -10 12h-196q-5 0 -7.5 -2.5
t-2.5 -9.5q0 -8 2.5 -10.5t8.5 -2.5zM518 311h-223q-6 0 -8.5 -2t-2.5 -9q-1 -9 2 -11t9 -2h111h111q5 0 7 0.5t4 3.5t1 8q0 8 -2.5 10t-8.5 2zM737 676v12h-12q5 0 8.5 -3.5t3.5 -8.5zM726 709q9 0 12 -10v11q0 16 -3 18.5t-19 2.5h-388q-14 0 -16.5 -2t-2.5 -15v-17v-19
v-12q0 -6 6 -6h13q6 0 6 6v13q0 1 1 2q2 11 10.5 18t20.5 7q169 -1 329 0q11 0 14.5 -4t3.5 -14v8q0 6 4 9.5t9 3.5zM738 373v351v-28v3q-3 10 -12 10q-6 0 -9.5 -3.5t-3.5 -9.5v-8l-1 -367q0 -10 9 -10h5q5 0 8.5 4t3.5 9v49zM802 54l-78 77v1q24 30 24 69q0 46 -32 78
t-77 32t-77.5 -32t-32.5 -77.5t32.5 -77.5t77.5 -32q38 0 67 23l1 -1l77 -77q6 -6 12 0l6 5q6 6 0 12zM638.5 114q-35.5 0 -61 25.5t-25.5 61.5t25.5 61.5t61 25.5t61 -25.5t25.5 -61.5t-25.5 -61.5t-61 -25.5z" />
    <glyph glyph-name="uniE640" unicode="&#xe640;" 
d="M162 386q0 95 47 175t127.5 127t175.5 47t175.5 -47t127 -128t46.5 -176q-1 -95 -48 -175t-127.5 -126.5t-175.5 -46.5q-94 0 -174.5 47t-127 127.5t-46.5 175.5zM511 96.5q119 -0.5 204 84t85.5 204t-84 204.5t-203.5 85q-120 1 -205 -84t-85 -204t84.5 -204
t203.5 -85.5zM425 567v-68q68 -12 72 -13q128 -31 190 -115q48 -65 33 -135q0 -1 -2 -9q-22 45 -52.5 77.5t-69.5 52.5t-79.5 31.5t-90.5 17.5v-69l-1 1l-1 1l-1 1l-1 1l-1 1l-1 1l-1 1l-1 1l-1 1l-1 1l-1 1l-1 1l-1 1l-1 1l-1 1l-1 1l-1 1l-1 1l-1 1l-1 1l-1 1l-1 1l-1 1
l-1 1l-1 1l-1 1l-1 1l-1 1l-1 1l-1 1l-1 1l-1 1l-1 1l-1 1l-1 1l-1 1l-1 1l-1 1l-1 1l-1 1l-1 1l-1 1l-1 1l-1 1l-1 1l-1 1l-1 1l-1 1l-1 1l-1 1l-1 1l-1 1l-1 1l-1 1l-1 1l-1 1l-1 1l-1 1l-1 1l-1 1l-1 1l-1 1l-1 1l-1 1l-1 1l-1 1l-1 1l-1 1l-1 1l-1 1l-1 1l-1 1l-1 1
l-1 1l-1 1l-1 1l-1 1l-1 1l-1 1l-1 1l-1 2l-1 1l-1 1l-1 1l-1 1l-1 1l-1 1l-1 1l-1 1l-1 1l-1 1l-1 1l-1 1l-1 1l-1 1l-1 1l-1 1l-1 1l-1 1l-1 1l-1 1l-1 1l-1 1l-1 1l-1 1l-1 1l-1 1l-1 1l-1 1l-1 1l-1 1l-1 1l-1 1l-1 1l-2 1q76 74 115 114z" />
    <glyph glyph-name="uniE641" unicode="&#xe641;" 
d="M861 383q0 -95 -47 -175t-127.5 -127t-174.5 -47q-95 0 -176 47t-127.5 127.5t-46.5 175.5q1 95 47.5 175.5t127 127t175.5 46t175 -47t127 -127t47 -175.5zM800 383.5q0 119.5 -84.5 204t-203.5 84.5t-204 -84.5t-85 -203.5q0 -120 84.5 -204.5t204.5 -84.5
q119 0 203.5 84.5t84.5 204zM548 234v84h-19h-198q-14 0 -17 3t-4 17v88q0 11 4.5 15t15.5 4h193h18v60q1 1 5 18q16 -8 17 -8q84 -64 146 -112q16 -12 16 -19t-15 -19q-109 -90 -146 -120q0 -1 -16 -11z" />
    <glyph glyph-name="uniE642" unicode="&#xe642;" 
d="M861 383q0 -95 -47 -175.5t-128 -127t-176 -46.5t-175.5 47.5t-127.5 128.5t-46 177q0 94 47.5 174.5t128.5 127t176 46.5q95 -1 175 -48t126.5 -128t46.5 -176zM510.5 95q119.5 0 204.5 84.5t85.5 204.5t-84.5 205t-204 85q-120 0 -205.5 -85t-85.5 -205
q1 -119 85.5 -204t204 -85zM579 361q53 0 60 -1q1 0 18 -5l-7 -15q-67 -87 -115 -149q-11 -14 -17.5 -14t-18.5 14q-93 113 -121 147q-1 0 -11 16h85v19q0 171 -1 200q0 11 4.5 15.5t15.5 3.5h88q13 0 16.5 -3t3.5 -17v-192v-19z" />
    <glyph glyph-name="uniE643" unicode="&#xe643;" 
d="M161 385q0 95 47 175.5t127.5 127.5t175.5 47q96 -1 176.5 -48t127 -128t46.5 -176t-47 -175.5t-128 -127t-176 -46.5t-175.5 47t-127 128t-46.5 176zM510.5 95q119.5 0 204.5 84.5t85.5 204t-84 204.5t-204.5 86q-120 0 -205 -84.5t-86 -204.5q0 -120 85 -205t204.5 -85
zM720 447q-61 -61 -116 -115v73q-51 -6 -91.5 -17.5t-79.5 -31.5t-70 -52.5t-53 -76.5q-12 36 0 80q25 89 128 144q66 35 144 43q1 0 21 4v66q89 -90 117 -117z" />
    <glyph glyph-name="uniE644" unicode="&#xe644;" 
d="M816 508h61v216q0 13 -9 22t-21 9h-213v-62h182v-185zM208 693h182v62h-213q-12 0 -21 -9t-9 -22v-216h61v185zM208 260h-61v-216q0 -13 9 -22t21 -9h213v62h-182v185zM816 75h-182v-62h213q12 0 21 9t9 22v216h-61v-185zM877 415h-730q-13 0 -22 -9t-9 -22t9 -22t22 -9
h730q13 0 22 9t9 22t-9 22t-22 9z" />
    <glyph glyph-name="uniE645" unicode="&#xe645;" 
d="M162 385q0 94 47 174.5t128 127t175.5 46.5t175 -47t127.5 -128t46 -176q0 -95 -47 -175t-128 -126.5t-176 -46.5q-94 0 -174.5 47t-127 128t-46.5 176zM512.5 95q119.5 0 204 85t84.5 204t-85 204t-204 85q-120 0 -204.5 -85t-84.5 -205q0 -119 85 -203.5t204.5 -84.5z
M479 389q18 -11 29 -16q-25 -43 -64.5 -64t-95.5 -32q29 -29 39 -31.5t46 15.5q-14 -19 -23 -31q3 -1 7 -4q22 -17 42 -14t68 38q-9 -16 -33 -55q38 -7 44 -7q7 -1 12 9q19 37 54 110q0 1 7 18q5 -2 16 -5.5t15 -4.5q-15 -42 -17 -44q-12 -24 -56 -105q-8 -16 -26 -14
q-152 19 -243 125q-9 11 -5 19q4 9 19 12q8 1 26 3.5t27 4.5q79 19 112 73zM651 344q-78 36 -157 69q6 18 23 27.5t33 3.5q44 -16 83 -37q17 -9 22 -27.5t-4 -35.5zM629 436q-15 6 -51 22l3 9q7 12 19 34.5t21.5 40.5t18 34t24.5 9t10 -24q-6 -16 -45 -125z" />
    <glyph glyph-name="uniE646" unicode="&#xe646;" 
d="M862 383q0 -95 -47 -175t-127.5 -127t-175 -47t-175 47t-127.5 127.5t-47 175.5t47 175t127.5 127t175.5 46.5t175 -47t127 -127t47 -175.5zM224 346h577v74h-577v-74z" />
    <glyph glyph-name="uniE647" unicode="&#xe647;" 
d="M162 385q0 95 47 175t127.5 127t175.5 47t175.5 -47t127 -128t46.5 -176q0 -94 -47 -174.5t-127.5 -127t-175.5 -46.5t-175 47t-127 127.5t-47 175.5zM800 384q0 119 -84.5 204t-203.5 85t-204 -84t-85 -204q0 -119 84.5 -204t204.5 -85q119 0 203.5 84.5t84.5 203.5z
M600 410h3h32q3 0 6 -2q10 -8 31 -24t31 -24q8 -6 11 -11q4 -9 3 -17q-5 -42 -8 -62q-3 -19 -22 -19h-65h-282q-6 0 -12 2q-10 2 -12 13q-1 6 -4 26q-4 29 -5 39q-2 18 12 28q13 10 35 27t29 22q2 2 5 2h33h2l-29 -29q-19 -19 -26 -28h3h40q6 0 8 -5q11 -28 15 -37
q1 -2 4 -2h148q3 0 4 2q3 9 14 37q3 5 8 5h41h3q-24 25 -56 57zM395 456h73v87h88v-87h72q1 0 1 -1h-1l-1 -1l-1 -1l-1 -1l-1 -1l-1 -1l-1 -1l-1 -1l-1 -1l-1 -1h-1l-1 -1l-1 -1l-1 -1l-1 -1l-1 -1l-1 -1l-1 -1l-1 -1l-1 -1l-1 -1h-1l-1 -1l-1 -1l-1 -1l-1 -1l-1 -1l-1 -1
l-1 -1l-1 -1l-1 -1h-1l-1 -1l-1 -1l-1 -1l-1 -1l-1 -1l-1 -1l-1 -1l-1 -1l-1 -1h-1l-1 -1l-1 -1l-1 -1l-1 -1l-1 -1l-1 -1l-1 -1l-1 -1l-1 -1l-1 -1h-1l-1 -1l-1 -1l-1 -1l-1 -1l-1 -1l-1 -1l-1 -1l-1 -1l-1 -1h-1l-1 -1l-1 -1l-1 -1l-1 -1l-2 -2l-1 -1l-1 -1l-1 -1h-1
l-1 -1l-1 -1l-1 -1l-1 -1l-1 -1l-1 -1l-1 -1l-1 -1l-1 -1h-1l-1 -1l-1 -1l-1 -1l-1 -1l-1 -1l-1 -1l-1 -1l-1 -1l-1 -1h-1l-1 -1l-1 -1l-1 -1l-1 -1l-1 -1l-1 -1l-1 -1l-1 -1l-1 -1l-1 -1h-1l-1 -1l-1 -1l-1 -1l-1 -1l-1 -1l-1 -1l-1 -1l-1 -1l-1 -1h-1l-1 -1l-2 -2l-1 1
l-1 1l-1 1l-1 1h-1l-1 1l-1 1l-1 1l-1 1l-1 1l-1 1l-1 1l-1 1l-1 1h-1l-1 1l-1 1l-1 1l-1 1l-1 1l-1 1l-1 1l-1 1l-1 1h-1l-1 1l-1 1l-1 1l-1 1l-1 1l-1 1l-1 1l-1 1l-1 1h-1l-1 1l-1 1l-1 1l-1 1l-1 1l-1 1l-1 1l-1 1l-1 1l-1 1h-1l-1 1l-1 1l-1 1l-1 1l-1 1l-1 1l-1 1
l-1 1l-1 1h-1l-1 1l-1 1l-1 1l-1 1l-1 1l-1 1l-1 1l-1 1l-1 1h-1l-1 1l-1 1l-1 1l-1 1l-1 1l-1 1l-1 1l-1 1l-1 1h-1l-1 1l-1 1l-1 1l-1 1l-1 1l-1 1l-1 1l-1 1l-1 1l-1 1h-1l-1 1l-1 1l-1 1l-1 1l-1 1l-1 1l-1 1l-1 1l-1 1h-1l-1 1l-1 1l-1 1l-1 1l-1 1l-1 1l-1 1l-1 1
l-1 1l-1 1h-1l-1 1l-1 1l-1 1l-1 1l-1 1l-1 1l-1 1l-1 1z" />
    <glyph glyph-name="uniE648" unicode="&#xe648;" 
d="M623 610h-219q-13 0 -20 7t-7 19q1 1 1 20q0 24 24 24h184h257q26 0 26 -25v-20q0 -25 -25 -25h-205h-16zM624 421h219q26 0 26 -26v-18q1 -13 -6.5 -20t-19.5 -7h-174h-266q-25 0 -25 26v19q0 26 25 26h221zM623 91h-220q-25 0 -25 25v21q0 24 24 24h188h253
q26 0 26 -25v-20q0 -25 -25 -25h-208h-13zM315 613v-56q0 -11 -6 -17.5t-17 -6.5h-115q-10 0 -16.5 6.5t-6.5 16.5v115q0 11 6.5 17t16.5 6h115q11 0 17 -6t6 -16v-59zM315 157v-56q0 -24 -24 -24h-113q-24 0 -24 24v113q0 24 24 24h113q24 0 24 -24v-57zM343 471
q-4 -8 -5 -8q-18 -22 -85 -100q-21 -26 -24 -29q-4 -4 -6 -5q-6 -4 -12 1l-5 5l-44 60q-3 3 -4 6q-2 6 2 10q6 5 12 2q2 -1 5 -3q29 -24 39 -31q3 -3 6 0q55 51 103 94q4 4 8 6q9 3 10 -8z" />
    <glyph glyph-name="uniE649" unicode="&#xe649;" 
d="M513 737l12 -11q15 -15 53 -51t58 -55q72 -69 149 -142q37 -36 70 -67q10 -10 11 -21t-6.5 -20.5t-18.5 -10.5q-15 -1 -26 9q-25 25 -86 83q-94 89 -152 145q-17 17 -61 58l-2 3l-15 -14q-17 -16 -53 -51.5t-55 -54.5q-55 -54 -145 -141q-20 -20 -37 -36q-8 -8 -19 -9
t-20 6q-11 9 -11.5 22t10.5 23q2 2 109 106q93 91 145 142q6 6 22 21.5t25 23.5q5 6 17.5 18t18.5 18q1 0 7 6zM515 33h-224q-20 0 -31 15q-7 9 -7 19v6v207v1q0 4 0.5 4.5t3.5 0.5h27h19q4 0 4 -4v-25v-165q0 -4 0.5 -4.5t4.5 -0.5h405q4 0 4.5 0.5t0.5 4.5v188q0 4 1 5
t5 1h44q5 0 5 -4v-109v-103q-1 -16 -11.5 -26.5t-26.5 -10.5h-224z" />
    <glyph glyph-name="uniE64A" unicode="&#xe64a;" 
d="M407 349q-26 20 -29 22q-9 8 -19 20q-10 11 -19 24q-5 8 -11 21q-4 8 -9 21q-9 23 -11 41q-2 25 -2 41q1 32 14 64q10 27 23 45q16 22 32 37q21 18 44 30q31 15 59 19l37 2q28 1 62 -10q33 -12 60 -34q20 -16 37 -38q25 -33 35 -74q3 -12 6 -36q1 -14 0 -27
q-2 -33 -14 -66q-12 -31 -35 -58q-16 -19 -37 -35q-27 -19 -56 -28q-22 -7 -42 -8q-5 -1 -15.5 -1t-16.5 -1q-29 -1 -58 -10q-22 -6 -42 -16q-26 -12 -52 -34q-3 -2 -8.5 -7t-6.5 -6q-24 -22 -42 -53q-12 -20 -19 -38q-11 -26 -15 -50q-2 -11 -3 -28q-1 -3 -2 -25
q0 -7 -6.5 -13.5t-13.5 -6.5q-14 2 -18 6q-7 7 -7 13v14v13q1 16 4 30q2 13 7 32q8 29 25 62q10 21 30 46q16 22 36 40q25 22 51 37q19 11 45 21zM512 690q-24 -2 -25 -2q-29 -4 -58 -22q-28 -17 -47 -45q-10 -15 -18 -37q-8 -17 -10 -42q-1 -11 0 -25q2 -17 4 -27
q7 -29 24 -54q14 -20 29 -32q26 -21 51 -28q25 -8 48 -9q3 0 19 1q20 2 41 11q32 13 56 39q17 18 28 42q11 22 14 43q2 16 2 21q0 6 -2 24q-1 25 -14 51q-14 29 -36 48q-14 13 -30 22q-36 21 -76 21zM816 65v-12q0 -8 -5.5 -13.5t-13.5 -5.5q-12 0 -15 2q-10 7 -11 18
q-1 50 -16 92q-10 28 -26 54q-5 8 -22 29q-7 9 -15 17q-7 6 -25 22q-5 4 -7 13q-1 8 3 15.5t11 10.5q14 5 25 -5q31 -28 34 -31q8 -8 27 -33q15 -19 26 -45q11 -22 13 -31q12 -36 15 -59q0 -3 3 -38h-1z" />
    <glyph glyph-name="uniE64B" unicode="&#xe64b;" 
d="M406 112q11 6 12 7q34 23 44 30q13 10 19 24q5 12 21 13q47 2 56 3q88 11 156 62q55 41 81 99q16 35 18 71q7 89 -53 161q-47 57 -123 86q-64 24 -135 22q-94 -3 -169 -49q-66 -40 -99 -103q-22 -42 -24 -89q-4 -80 50 -148q25 -30 60 -55q10 -7 13 -15q6 -17 -7 -28
q-14 -11 -29 -2q-11 7 -26 19q-39 31 -66 72q-38 57 -44 120q-10 102 54 188q41 57 109 94q59 32 128 42q48 7 97 3q114 -11 199 -77q65 -49 95 -120q17 -40 20 -82q6 -64 -19 -124q-19 -45 -54 -83q-65 -71 -163 -100q-50 -15 -105 -17q-4 0 -7 -3q-15 -20 -44 -40
q-43 -30 -100 -55q-12 -6 -23 0t-13 20q-1 5 2 14q4 10 11 30t10 28l4 16v4q-5 10 -1.5 19t12 14t18 2.5t16.5 -10.5q8 -10 6 -28q-1 -3 -6 -30q-1 -1 -1 -4v-1zM514 464h-100q-19 0 -25 17q-3 11 3 20.5t17 11.5q3 1 7 1h196q7 0 13 -3q18 -8 14 -27q-4 -20 -24 -20h-60
h-41zM514 363h-76q-19 0 -25 17q-3 12 3 21.5t18 11.5h5h63h87q16 0 23 -12q8 -13 1 -25.5t-22 -12.5h-68h-9z" />
    <glyph glyph-name="uniE64C" unicode="&#xe64c;" 
d="M836 44.5q-1 4.5 -2.5 17.5t-3.5 20q-32 142 -158 216q-8 4 -8.5 7t6.5 10q78 69 81 169q0 75 -37.5 135.5t-99.5 90.5t-133 20q-151 -21 -196 -166q-45 -142 68 -249q7 -6 7 -9.5t-8 -7.5q-135 -79 -162 -233q-4 -22 -1 -25.5t24 -3.5h3q8 -1 11.5 2t4.5 12
q22 154 166 223q10 5 21 0q93 -38 186 0q11 5 21 0q134 -65 163 -206q5 -24 9.5 -28t29.5 -3h1q5 0 6.5 2t0.5 6.5zM512.5 297.5q-80.5 -0.5 -138 57t-58 138.5t57 138.5t138 57.5t138 -57t58.5 -138q0 -81 -57.5 -138.5t-138 -58z" />
    <glyph glyph-name="uniE64D" unicode="&#xe64d;" 
d="M544 380q-15 6 -32 6t-32 -6q-48 -19 -48 -72v-1q0 -20 9 -38q7 -13 19 -23v-29q0 -35 31 -48q10 -4 21 -4t21 4q31 12 31 48v29q12 10 19 23q9 18 9 38q0 54 -48 73zM554 284q-5 -10 -15 -17q-7 -5 -7 -14v-36q0 -14 -11 -18q-5 -2 -9 -2q-5 0 -9 2q-11 4 -11 18v37
q0 8 -7 13q-10 7 -15.5 17.5t-5.5 22.5v1q1 31 28 41q9 4 20 4t20 -4q28 -10 28 -42q0 -12 -6 -23zM721 395v141q0 82 -58.5 140.5t-140.5 58.5h-20q-83 0 -141 -58.5t-58 -140.5v-141q-32 -56 -32 -120q0 -100 70.5 -171t170.5 -71q98 0 169 70l2 1q70 71 70 171
q0 64 -32 120zM356 536q0 60 43 102.5t103 42.5h20q60 0 102.5 -42.5t42.5 -102.5v-77q-67 57 -155 57t-156 -57v77zM645 142l-2 -1q-54 -54 -131 -54q-78 0 -132.5 55t-54.5 133q0 52 27 97q1 2 1 3q11 17 26 32v0q55 55 133 55t133 -55q14 -14 26 -32q0 -1 1 -3
q27 -45 27 -97q0 -78 -54 -133z" />
    <glyph glyph-name="uniE64E" unicode="&#xe64e;" 
d="M241 275q87 -91 206 -95q82 -3 153 41l-1 1l-1 1l-1 1l-1 1l-1 1l-1 1h-1l-1 1l-1 1l-1 1l-1 1l-1 1l-1 1l-1 1l-1 1h-1l-1 1l-1 1l-1 1l-1 1l-1 1l-1 1l-1 1l-1 1h-1l-1 1l-1 1l-1 1l-1 1l-1 1l-1 1l-1 1l-1 1h-1l-1 1l-1 1l-1 1l-1 1l-1 1l-1 1l-1 1l-1 1h-1l-1 1l-1 1
l-1 1l-1 1l-1 1l-1 1l-1 1l-1 1l-1 1h-1l-1 1l-1 1l-1 1l-1 1l-1 1l-1 1l-1 1l-1 1h-1l-1 1l-1 1l-1 1l-1 1l-1 1l-1 1l-1 1l-1 1h-1l-1 1l-1 1l-1 1l-1 1l-1 1l-1 1l-1 1l-1 1h-1l-1 1l-1 1l-1 1l-1 1l-1 1l-1 1l-1 1l-1 1h-1l-1 1l-1 1l-1 1l-1 1l-1 1l-1 1l-1 1l-1 1h-1
l-1 1l-1 1l-1 1l-1 1l-1 1l-1 1l-1 1l-1 1l-1 1l-1 1l-1 1l-1 1h-1l-1 1l-1 1l-1 1l-1 1l-1 1l-1 1l-1 1l-1 1h-1l-1 1l-1 1l-1 1l-1 1l-1 1l-1 1l-1 1l-1 1h-1l-1 1l-1 1l-1 1l-1 1l-1 1l-1 1l-1 1l-1 1h-1l-1 1l-1 1l-1 1l-1 1l-1 1l-1 1l-1 1l-1 1h-1l-1 1l-1 1l-1 1
l-1 1l-1 1l-1 1l-1 1l-1 1h-1l-1 1l-1 1l-1 1l-1 1l-1 1l-1 1l-1 1l-1 1h-1l-1 1l-1 1l-1 1l-1 1l-1 1l-1 1l-1 1l-1 1h-1l-1 1l-1 1l-1 1l-1 1l-1 1l-1 1l-1 1l-1 1h-1l-1 1l-1 1l-1 1l-1 1l-1 1l-1 1l-1 1l-1 1h-1l-1 1l-1 1l-1 1l-1 1l-1 1l-1 1l-1 1l-1 1h-1l-1 1l-1 1
l-1 1l-1 1l-1 1l-1 1l-1 1l-1 1h-1l-1 1l-1 1l-1 1l-1 1l-1 1l-1 1l-1 1l-1 1h-1l-1 1l-1 1l-1 1l-1 1l-1 1l-1 1l-1 1l-1 1l-1 1h-1l-2 2l-1 -1v-1l-1 -1l-1 -1l-1 -1l-1 -1l-1 -1l-1 -1l-1 -1l-1 -1v-1l-1 -1l-1 -1l-1 -1l-1 -1l-1 -1l-1 -1l-1 -1l-1 -1v-1l-1 -1l-1 -1
l-1 -1l-1 -1l-1 -1l-1 -1l-1 -1l-1 -1l-1 -1v-1l-1 -1l-1 -1l-1 -1l-1 -1l-1 -1l-1 -1l-1 -1l-1 -1v-1l-1 -1l-1 -1l-1 -1l-1 -1l-1 -1l-1 -1l-1 -1l-1 -1v-1l-1 -1l-1 -1l-1 -1l-1 -1l-1 -1l-1 -1l-1 -1l-1 -1v-1l-1 -1l-1 -1l-1 -1l-1 -1l-1 -1l-1 -1l-1 -1l-1 -1v-1
l-1 -1l-1 -1l-1 -1l-1 -1l-1 -1l-1 -1l-1 -1l-1 -1v-1l-1 -1l-1 -1l-2 -2l-1 1l-1 1l-1 1l-1 1l-1 1h-1l-1 1l-1 1l-1 1l-1 1l-1 1l-1 1l-1 1l-1 1h-1l-1 1l-1 1l-1 1l-1 1l-1 1l-1 1l-1 1l-1 1h-1l-1 1l-1 1l-1 1l-1 1l-1 1l-1 1l-2 2h-1l-1 1l-1 1l-1 1l-1 1l-1 1l-1 1
l-1 1l-1 1h-1l-1 1l-1 1l-1 1l-1 1l-1 1l-1 1l-1 1l-1 1h-1l-1 1l-1 1l-1 1l-1 1l-1 1l-1 1l-1 1l-1 1h-1l-1 1l-1 1l-1 1l-1 1l-1 1l-1 1l-1 1l-1 1h-1l-1 1l-1 1l-1 1l-1 1l-1 1l-1 1v1l-1 1h-1l-1 1l-1 1l-1 1l-1 1l-1 1l-1 1l-1 1l-1 1h-1l-1 1l-1 1l-1 1l-1 1l-1 1
l-1 1l-1 1l-1 1h-1l-1 1l-1 1l-2 1q11 13 12 14q13 14 39.5 44t39.5 45q57 64 73 82q7 8 16 5q51 -11 93 21q1 0 2 2q3 -2 51 -46q-36 -40 -69 -78l234 -209q67 137 -4 267q-70 128 -221 151v1q18 2 19 2q74 3 140 -22q49 -19 90 -53q61 -50 94 -122q20 -45 26 -96
q6 -43 1 -85q-8 -69 -42 -130q-2 -3 1 -6q14 -12 59 -52l2 -3q-59 -66 -87 -97l-1 1h-1l-1 1l-1 1l-1 1l-1 1l-1 1l-1 1l-1 1l-1 1l-1 1h-1l-1 1l-1 1l-1 1l-1 1l-1 1l-1 1l-1 1l-1 1h-1l-1 1l-1 1l-1 1l-1 1l-1 1l-1 1l-1 1l-1 1h-1l-1 1l-1 1l-1 1l-1 1l-1 1l-1 1l-1 1
l-1 1h-1l-1 1l-1 1l-1 1l-1 1l-1 1l-1 1l-1 1l-1 1h-1l-1 1l-1 1l-1 1l-1 1l-1 1l-1 1l-1 1l-1 1h-1l-1 1l-1 1l-1 1l-1 1q-94 -75 -210 -80q-117 -5 -214 65q-6 -4 -4 -11q4 -21 -9 -41t-35 -24q-38 -7 -59 26q-9 14 -8.5 31.5t11.5 31.5q19 24 49 21q3 0 5 1q6 3 1 8
q-24 27 -43 60q-2 4 1 7q11 12 45 51z" />
    <glyph glyph-name="uniE64F" unicode="&#xe64f;" 
d="M213 183h42v-106h535v620h-535v-73l-9 -1h-15h-15q-3 0 -3 3v87q0 10 6 17t15 9q6 2 10 2h552q21 0 32 -14q5 -6 5 -14q1 -3 1 -6v-638q0 -21 -18 -31q-2 -1 -12 -4h-6h-553q-13 0 -20 5q-10 8 -12 24v6v110v4zM464 523v17q-1 3 2 4q24 15 49 18q24 3 42 -1
q47 -11 55 -52t-19 -70q0 -1 -32 -30q-5 -6 -11 -11q-8 -9 -8 -25v-11q0 -9 -10 -9h-24q-3 0 -5.5 2.5t-2.5 5.5q0 19 1 21q2 26 20 41q22 19 33 30q11 10 14 22q5 22 -5 34q-8 12 -24 14q-37 6 -65 -21q-2 -2 -5 -1q-4 2 -4.5 3t-0.5 6v13zM310 306v-44h-3h-112q-4 0 -4 4
v37v3h119zM310 556v-43l-3 -1h-112q-4 0 -4 4v36v4h119zM310 436v-43h-119v2v17v20q0 4 3 4h113h3zM549 298q0 -12 -8.5 -19.5t-21.5 -7.5q-10 1 -18.5 9t-7.5 20q1 11 9 19t19 7q13 0 20.5 -8t7.5 -20z" />
    <glyph glyph-name="uniE650" unicode="&#xe650;" 
d="M511 34q-96 1 -177.5 48t-129 128.5t-47.5 178t48 178t129 128t177 46.5t177.5 -47t128.5 -128.5t47 -177.5q0 -97 -47.5 -178.5t-128.5 -128t-177 -47.5zM493 245q0 20 1 22q0 4 -5 4h-153h-3t-3 4v3v181q0 3 0.5 4t3.5 1h292h1q3 0 3.5 -1t0.5 -3v-19l1 -3h25l1 2v75
q-1 6 -2 11q-9 22 -38 18v-13q-1 -8 -3 -12q-9 -16 -27 -15q-8 0 -15 5.5t-9 12.5t-2 19q0 4 -4 4h-155h-2t-2 -3v-6v-5q0 -10 -7 -18q-7 -7 -16.5 -9t-17.5 3q-15 8 -15 25v13h-9q-14 -1 -22.5 -9.5t-8.5 -21.5v-238q0 -7 3 -13q7 -18 29 -18h155h3zM494 408v24q0 3 -3 3
h-48q-3 0 -3 -3v-47q0 -4 3 -4h47q4 0 4 4v23zM412 435h-54v-53l1 -1h50q3 0 3 3v46v5zM467 299h23q4 0 4 4v47q0 3 -3 3h-48q-3 0 -3 -3v-48q0 -3 3 -3h24zM411 300v53h-53v-53h53zM385 558q0 22 -1 25q0 4 -1 9q-1 3 -5.5 5.5t-7.5 1.5q-12 -2 -12 -14q-1 -28 0 -52
q0 -10 7 -13q8 -4 15 2q4 3 4 12q1 2 1 24zM603 559v24q0 4 -1 9q-2 3 -6 5.5t-7 1.5q-12 -2 -12 -14q-1 -26 0 -53q0 -9 7.5 -12.5t13.5 1.5q5 4 5 13v25zM592 421h-82q-8 0 -8 -7q1 -2 2 -41q1 -2 1.5 -19t1.5 -25q0 -5 0.5 -17t1.5 -18q1 -24 2 -49q0 -9 9 -9h144h3
q5 1 5 5q1 15 2 23q0 4 3 5q13 0 23 6q24 13 30 42q2 15 -1 28q-5 13 -10 20q-15 21 -36 23q-3 1 -3 3q1 14 1 23q1 7 -7 7h-82zM592 230h-109q-3 0 -5 -1q-4 -1 -4 -5t4 -6q7 -2 16 -5q30 -9 35 -11q13 -4 22 -4h43h42q5 0 11 2q2 0 27 8q2 1 13.5 4.5t17.5 5.5q5 2 5 6
q-1 4 -5 5q-1 1 -4 1h-109zM592 421h82q8 0 7 -7q0 -9 -1 -23q0 -2 3 -3q21 -2 36 -23q5 -7 10 -20q3 -13 1 -28q-6 -29 -30 -42q-10 -6 -23 -6q-3 -1 -3 -5q-1 -8 -2 -23q0 -4 -5 -5h-3h-144q-9 0 -9 9q-1 25 -2 49q-1 6 -1.5 18t-0.5 17q-1 6 -1 13.5t-0.5 16t-1.5 14.5
q-1 39 -2 41q0 7 8 7h82zM592 420h-82q-4 0 -5 -1t-1 -5t0.5 -13.5t1.5 -14.5q0 -6 1 -23.5t1 -26.5q1 -17 2.5 -49t2.5 -44q0 -5 5 -5h147q5 0 5 5q1 10 2 22q0 4 0.5 4.5t4.5 0.5q16 0 29 10q22 18 23 49q0 7 -2 12q-2 10 -6 18q-8 16 -24 23q-2 1 -16 5q-3 1 -3 4
q0 4 1 23q1 6 -5 6h-82zM592 230h109q3 0 4 -1q4 -1 5 -5q0 -4 -5 -6q-6 -2 -17 -5.5t-14 -4.5q-25 -8 -27 -8q-6 -2 -11 -2h-42h-43q-9 0 -22 4q-6 2 -35 11q-9 3 -16 5q-4 2 -4 6t4 5q2 1 5 1h109zM592 228h-43h-68q-5 0 -5.5 -3.5t4.5 -5.5q51 -16 52 -16q12 -4 14 -4h91
q2 0 5 1t45 14q16 5 18 6q3 1 3 4q0 1 -4 4h-2h-110zM680 288q-5 0 -6 1t-1 4l4 68q0 7 1.5 8t8.5 -2q18 -7 23 -26q5 -18 -3 -33q-10 -17 -27 -20zM542 266l-1 -8q-3 -6 -9 -4q-5 1 -6 7q-3 59 -3 64q-1 10 -2.5 32.5t-1.5 34.5v7q2 6 8.5 5t6.5 -7q2 -24 2 -35
q1 -7 1.5 -26t1.5 -29q0 -3 3 -41z" />
    <glyph glyph-name="uniE651" unicode="&#xe651;" 
d="M480 736q166 11 280 -101q91 -90 102 -217q14 -164 -101 -281q-89 -91 -215 -102q-163 -15 -281 100q-93 91 -104 219q-13 163 101 279q89 90 218 103zM464 537q-20 -6 -33 -22q-15 -19 -21 -37q-7 -21 -9 -62q0 -11 -1 -13q-4 -21 -7 -31q-10 -32 -35 -73
q-7 -13 -18 -33q-1 -3 0 -7q3 -6 13 -6h315h3q10 1 9 10q0 5 -2 9q-7 11 -19 33q-30 49 -38 92q-1 6 -3 30q0 3 -0.5 14t-1.5 17q-4 26 -18 46q-14 19 -28 27l-14 7q6 30 -18 47q-10 8 -27 8.5t-28 -7.5q-26 -18 -19 -49zM574 221l-1 1h-125q2 -4 3 -4q13 -21 36 -34t47 0
q17 9 31 25q0 1 9 12zM525 558q0 -6 -4 -10t-11 -4q-5 -1 -9.5 3.5t-5.5 10.5q0 6 4.5 10.5t10.5 4.5t10.5 -4.5t4.5 -10.5z" />
    <glyph glyph-name="uniE652" unicode="&#xe652;" 
d="M861 412q9 -156 -93 -265q-91 -98 -222 -110q-158 -14 -273 93q-99 92 -110 225q-13 154 92 268q91 100 226 111q147 13 258 -82q110 -93 122 -240zM611 213h54q4 0 8 2q13 6 13 21v102q0 10 -6.5 16.5t-15.5 6.5h-52h-53q-9 0 -15 -6t-6 -15v-52v-53q0 -10 6 -16t15 -6
h52zM414 360h-51q-9 1 -15.5 -5.5t-6.5 -15.5v-52v-51q0 -6 1 -8q6 -14 21 -14h103q10 0 16 6.5t6 15.5v50v52q0 6 -2 10q-6 12 -20 12h-52zM415 557h-52q-10 0 -15.5 -6t-5.5 -15q-1 -51 0 -103q0 -10 6 -16t15 -6h103q9 0 15 6.5t6 15.5q1 47 0 103q0 9 -6 15t-15 6h-51z
M617 399q8 0 14 6l69 69q6 6 5.5 15t-5.5 14q-2 1 -18 18l-50 51q-7 6 -16 6q-8 0 -14 -6l-36 -36q-24 -24 -35 -36q-5 -5 -4 -13t7 -14q3 -2 28.5 -28t38.5 -39q8 -7 16 -7z" />
    <glyph glyph-name="uniE653" unicode="&#xe653;" 
d="M745 144q16 -14 17 -15q41 -35 42 -36q12 -10 12.5 -24t-10.5 -23q-8 -8 -18.5 -9t-19.5 6q-5 3 -34 28l-35 30q-3 2 -6 0q-60 -40 -131 -51q-42 -6 -84 -2q-81 8 -150 53q-3 3 -6 -1q-29 -35 -46 -55q-10 -11 -24 -11.5t-24 9.5q-7 8 -8 19t5 19q4 4 27 33q16 19 22 26
q3 4 0 7q-36 36 -59 83q-24 50 -31 106q-9 77 16 148q29 82 95 139q64 57 148 74q47 10 96 6q67 -6 126 -37q74 -40 121 -110q35 -54 48 -117q8 -40 5 -80q-6 -113 -79 -199q-1 -1 -15 -16zM511 642q-110 0 -188.5 -78t-78.5 -188q0 -111 78 -189t188.5 -78.5t188.5 77.5
t78.5 188.5t-78 189t-188.5 78.5zM841 519q-9 26 -9 27q-15 38 -46 72q-47 52 -115 88q-1 0 -4 2q10 9 11 10q19 16 46 18q32 2 70 -16q13 -6 27 -15q12 -7 27 -27q26 -36 24 -77q-3 -42 -30 -81zM182 524q-14 11 -21 24q-14 25 -9 58q6 41 29 76q7 10 25 25q36 28 80 25
q40 -2 76 -26q1 0 1 -1q1 0 1 -1l-4 -1q-45 -13 -84 -49q-55 -49 -92 -125q-1 -1 -1.5 -2.5t-0.5 -2.5zM477 464v85q0 15 5 24t15.5 13.5t21.5 2.5t19 -11t8 -20v-8v-78v-59q0 -4 1 -4.5t5 -0.5h141q18 0 28 -12q15 -16 6 -37q-8 -19 -31 -21h-5h-165q-4 0 -9 -1
q-15 -2 -26.5 7.5t-13.5 25.5v12v82z" />
    <glyph glyph-name="uniE654" unicode="&#xe654;" 
d="M736 429v-265q0 -17 2 -38t18.5 -35t36.5 -13q22 1 27 22q9 40 9 64v502v12q1 22 22 22t22 -22v-3q0 -429 -1 -525q0 -32 -13 -69q-17 -48 -72 -48h-263h-265q-76 0 -97 60q-8 23 -8 44q-1 175 -1 575q0 26 26 26h530q14 0 20 -6t7 -21v-282zM710 77q-19 30 -19 82v513
v18h-493q-1 -13 -1 -14v-530q0 -10 1 -15q3 -27 15.5 -39.5t39.5 -14.5h12h427h18zM764 421v270q0 34 21 34q23 0 23 -35v-537q0 -12 -2 -17q-8 -23 -23 -17q-7 3 -19 21v15v266zM629 329v-31h-375v31h375zM629 252v-30h-375v30h375zM367 182v-27h-113v27h113zM357 601h-23
q4 -2 18 -8q-3 -4 -9 -13h18v-19h-33v-11h30v-19h-30v-42q0 -8 -3.5 -12.5t-9.5 -5.5t-22 -1q-1 10 -4 19l-3 -8q-7 5 -19 9q9 16 15 38l19 -6q-4 -16 -11 -30q5 -1 9 -1q6 0 6 8v32h-32v19h32v11h-34v19h18q-4 7 -7 13l18 8q7 -12 12 -21h7q9 14 12 21h-57v19h30
q-2 6 -4 11l23 5q3 -7 5 -16h29v-19zM439 558h-13v-89h-23v89h-15v-10q0 -54 -23 -83q-12 10 -21 17q9 9 15 22l-18 -10q-6 14 -13 25l17 9q6 -9 14 -24q7 17 7 40v77q39 4 63 13l10 -23q-23 -6 -51 -8v-23h51v-22zM451 613h23v-145h-23v145zM472 628l21 8q7 -13 16 -28
l-22 -9q-7 17 -15 29zM479 494l-2 20h13v64h-10v19h97v-19h-12v-60l16 1q-1 -10 -2 -19h-14v-10q9 0 12 0.5t5 3.5t2 8v105h-68v21h91v-128q0 -14 -5 -21.5t-14 -9.5t-29 -2q-1 8 -3 14h-11v17zM511 568h34v10h-34v-10zM511 542h34v10h-34v-10zM545 517v10h-34v-12zM629 406
v-30h-375v30h375z" />
    <glyph glyph-name="uniE655" unicode="&#xe655;" 
d="M379 333l1 -1l1 -1l1 -1l1 -1v-1l1 -1l1 -1l1 -1l1 -1l1 -1v-1l1 -1l1 -1l1 -1l1 -1v-1l1 -1l1 -1l1 -1l1 -1v-1l1 -1l1 -1l1 -1l1 -1l1 -1v-1l1 -1l1 -1l1 -1l1 -1v-1l1 -1l1 -1l1 -1l1 -1l1 -1v-1l1 -1l1 -1l1 -1l1 -1v-1l1 -1l1 -1l1 -1l1 -1l1 -1v-1l1 -1l1 -1l1 -1
l1 -1v-1l1 -1l1 -1l1 -1l1 -1l1 -1v-1l1 -1l1 -1l1 -1l1 -1v-1l1 -1l1 -1l1 -1l1 -1v-1l1 -1l1 -1l1 -1l1 -1l1 -1v-1l1 -1l1 -1l1 -1l1 -1v-1l1 -1l1 -1l1 -1l1 -1l1 -1v-1l1 -1l1 -1l1 -1l1 -1v-1l1 -1l1 -1l1 -1l1 -1v-1l1 -1l1 -1l1 -1l1 -1l1 -1v-1l1 -1l1 -1l1 -1
l1 -1v-1l1 -1l1 -1l1 -1l1 -1l1 -1v-1l1 -1l1 -1l1 -1l1 -1v-1l1 -1l1 -1l1 -1l1 -1v-1l1 -1l1 -1l1 -1l1 -1l1 -1v-1l1 -1l1 -1l1 -1l1 -1v-1l1 -1l1 -1l1 -1l1 -1l1 -1v-1l1 -1l1 -1l1 -1l1 -1v-1l1 -1l1 -1l1 -1l1 -1v-1l1 -1l1 -1l1 -1l1 -1l1 -1v-1l2 -2l1 -1l1 -1v-1
l1 -1l1 -1l1 -1l1 -1v-1l1 -1l1 -1l1 -1l1 -1v-1l1 -1l1 -1l1 -1l1 -1l1 -1v-1l1 -1l1 -1l1 -1l1 -1v-1l1 -1l1 -1l1 -1l1 -1v-1l1 -1l1 -1l1 -1l1 -1l1 -1v-1l1 -1l1 -1l1 -1l1 -1v-1l1 -1l1 -1l1 -1l1 -1l1 -1v-1l1 -1l1 -1l1 -1l1 -1v-1l1 -1l1 -1l1 -1l1 -1v-1l1 -1
l1 -1l1 -1l1 -1l1 -1v-1l1 -1l1 -1l1 -1l1 -1v-1l1 -1l1 -1l1 -1l1 -1v-1l1 -1l1 -1l1 -1l1 -1l1 -1v-1l1 -1l1 -1l1 -1l1 -1v-1l1 -1l1 -1l1 -1l1 -1v-1l1 -1l1 -1l1 -1l1 -1l1 -1v-1l1 -1l1 -1l1 -1l1 -1v-1l1 -1l1 -1l1 -1l1 -1l1 -1v-1l1 -1l1 -1l1 -1l1 -1v-1l1 -1
l1 -1l1 -1l1 -1v-1l1 -1l1 -1l1 -1l1 -1l1 -1v-1l1 -1l1 -1q-23 -6 -24 -7q-45 -9 -87 -7q-60 3 -115 25q-8 3 -9 4.5t-1 9.5q1 31 2 86q0 12 0.5 36t1.5 36q0 9 0.5 39.5t1.5 46.5v13zM176 290q-9 32 -13 67q-3 30 1 64q5 54 26 103q1 2 4 2q13 0 88 -2q21 0 41 -1
q8 0 31.5 -0.5t36.5 -0.5q5 0 68 -2l-1 -1h-1l-1 -1l-1 -1l-1 -1l-1 -1h-1l-1 -1l-1 -1l-1 -1l-1 -1l-1 -1h-1l-1 -1l-1 -1l-1 -1l-1 -1h-1l-1 -1l-1 -1l-1 -1l-1 -1l-1 -1h-1l-1 -1l-1 -1l-1 -1l-1 -1h-1l-2 -1l-1 -1l-1 -1l-1 -1h-1l-1 -1l-1 -1l-1 -1l-1 -1l-1 -1h-1
l-1 -1l-1 -1l-1 -1l-1 -1h-1l-1 -1l-1 -1l-1 -1l-1 -1l-1 -1h-1l-1 -1l-1 -1l-1 -1l-1 -1h-1l-1 -1l-1 -1l-1 -1l-1 -1l-1 -1h-1l-1 -1l-1 -1l-1 -1l-1 -1h-1l-1 -1l-1 -1l-1 -1l-1 -1l-1 -1h-1l-1 -1l-1 -1l-1 -1l-1 -1h-1l-1 -1l-1 -1l-1 -1l-1 -1h-1l-1 -1l-1 -1l-1 -1
l-1 -1l-1 -1h-1l-1 -1l-1 -1l-1 -1l-1 -1h-1l-1 -1l-1 -1l-1 -1l-1 -1l-1 -1h-1l-1 -1l-1 -1l-1 -1l-1 -1h-1l-1 -1l-1 -1l-1 -1l-1 -1l-1 -1h-1l-1 -1l-1 -1l-1 -1l-1 -1h-1l-1 -1l-1 -1l-1 -1l-1 -1h-1l-1 -1l-1 -1l-1 -1l-1 -1l-1 -1h-1l-1 -1l-1 -1l-1 -1l-1 -1h-1
l-1 -1l-1 -1l-1 -1l-1 -1l-1 -1h-1l-1 -1l-1 -1l-1 -1l-1 -1h-1l-1 -1l-1 -1l-1 -1l-1 -1h-1l-1 -1l-1 -1l-1 -1l-1 -1l-1 -1h-1l-1 -1l-1 -1l-1 -1l-1 -1h-1l-1 -1l-1 -1l-1 -1l-1 -1l-1 -1h-1l-1 -1l-1 -1l-1 -1l-1 -1h-1l-1 -1l-1 -1l-1 -1l-1 -1h-1l-1 -1l-1 -1l-1 -1
l-1 -1l-1 -1h-1l-1 -1l-1 -1l-1 -1l-1 -1h-1l-1 -1l-1 -1l-1 -1l-1 -1h-1l-1 -1l-1 -1l-1 -1l-1 -1l-1 -1h-1l-1 -1l-1 -1l-1 -1l-1 -1h-1l-1 -1l-1 -1l-1 -1l-1 -1l-1 -1h-1l-1 -1l-1 -1l-1 -1l-1 -1h-1l-1 -1l-1 -1l-1 -1l-1 -1h-1l-1 -1l-1 -1l-1 -1l-1 -1l-1 -1h-1
l-1 -1l-1 -1l-1 -1l-1 -1h-1l-1 -1l-1 -1l-1 -1l-1 -1l-1 -1h-1l-1 -1l-1 -1l-1 -1l-1 -1l-1 -1h-1l-1 -1l-1 -1l-1 -1l-1 -1l-1 -1h-1l-1 -1l-1 -1l-1 -1l-1 -1h-1l-1 -1l-1 -1l-1 -1l-1 -1h-1l-1 -1l-1 -1l-1 -1l-1 -1l-1 -1h-1l-1 -1l-1 -1l-1 -1l-1 -1h-1l-1 -1l-1 -1
l-1 -1l-1 -1l-1 -1h-1l-1 -1l-1 -1l-1 -1l-1 -1h-1l-1 -1l-1 -1zM645 442l-230 282q32 7 34 7q31 7 63 6q34 0 65 -6q36 -7 70 -21q4 -1 4 -6q0 -19 -1 -56t-1 -46q0 -12 -0.5 -34.5t-0.5 -32.5q-1 -17 -1.5 -51t-0.5 -39v-3h-1zM566 254l1 1l1 1h1l1 1l1 1l1 1l1 1h1l1 1
l1 1l1 1l1 1l1 1h1l1 1l1 1l1 1l1 1h1l1 1l1 1l1 1l1 1l1 1h1l1 1l1 1l1 1l1 1h1l1 1l1 1l1 1l1 1l1 1h1l1 1l1 1l1 1l1 1h1l1 1l1 1l1 1l1 1l1 1h1l1 1l1 1l1 1l1 1h1l1 1l1 1l1 1l1 1h1l1 1l1 1l1 1l1 1l1 1h1l1 1l1 1l1 1l1 1h1l1 1l1 1l1 1l1 1l1 1h1l1 1l1 1l1 1l1 1h1
l1 1l1 1l1 1l1 1l1 1h1l1 1l1 1l1 1l1 1h1l1 1l1 1l1 1l1 1h1l1 1l1 1l1 1l1 1l1 1h1l1 1l1 1l1 1l1 1h1l1 1l1 1l1 1l1 1l1 1h1l1 1l1 1l1 1l1 1h1l1 2h1l1 1l1 1l1 1l1 1h1l1 1l1 1l1 1l1 1h1l1 1l1 1l1 1l1 1l1 1h1l1 1l1 1l1 1l1 1h1l1 1l1 1l1 1l1 1l1 1h1l1 1l1 1l1 1
l1 1h1l1 1l1 1l1 1l1 1h1l1 1l1 1l1 1l1 1l1 1h1l1 1l1 1l1 1l1 1h1l1 1l1 1l1 1l1 1h1l1 1l1 1l1 1l1 1l1 1h1l1 1l1 1l1 1l1 1h1l1 1l1 1l1 1l1 1l1 1h1l1 1l1 1l1 1l1 1h1l1 1l1 1l1 1l1 1h1l1 1l1 1l1 1l1 1l1 1h1l1 1l1 1l1 1l1 1h1l1 1l1 1l1 1l1 1h1l1 1l1 1l1 1l1 1
l1 1h1l1 1l1 1l1 1l1 1h1l1 1l1 1l1 1l1 1h1l1 1l1 1l1 1l1 1l1 1h1l1 1l1 1l1 1l1 1h1l1 1l1 1l1 1l1 1l1 1h1l1 1l1 1l1 1l1 1h1l1 1l1 1l1 1l1 1h1l1 1l1 1l1 1l1 1l1 1h1l1 1l1 1l1 1l1 1h1l1 1l1 1l1 1l1 1l1 1h1l1 1l1 1l1 1l1 1h1l1 1l2 1q5 -21 5 -22q12 -55 7 -106
q-5 -54 -26 -104q-1 -4 -6 -4q-21 1 -62.5 1.5t-47.5 0.5q-5 0 -75 2q-50 1 -75 2h-3zM343 80q-28 18 -29 19q-56 38 -94 95q-19 29 -32 62q-1 2 1 5q24 23 68 65q7 7 22 21.5t23 21.5q15 14 40.5 38.5t34.5 32.5l3 3v-1v-1v-1v-1v-1v-1l-1 -1v-1v-1v-1v-1v-1v-1v-1v-1v-1
l-1 -1v-1v-1v-1v-1v-1v-1v-1v-1l-1 -1v-1v-1v-1v-1v-1v-1v-1v-1v-1l-1 -1v-1v-1v-1v-1v-1v-1v-1v-1v-1l-1 -1v-1v-1v-1v-1v-1v-1v-1v-1v-1l-1 -1v-1v-1v-1v-1v-1v-1v-1v-1l-1 -1v-1v-1v-1v-1v-1v-1v-1v-1v-1l-1 -1v-1v-1v-1v-1v-1v-1v-1v-1v-1l-1 -1v-1v-1v-1v-1v-1v-1v-1
v-1v-1l-1 -1v-1v-1v-1v-1v-1v-1v-1v-1l-1 -1v-1v-1v-1v-1v-1v-1v-1v-1v-1l-1 -1v-1v-1v-1v-1v-1v-1v-1v-1v-1l-1 -1v-1v-1v-1v-1v-1v-1v-1v-1v-1l-1 -1v-1v-1v-1v-1v-1v-1v-1v-1v-1l-1 -1v-1v-1v-1v-1v-1v-1v-1v-1l-1 -1v-1v-1v-1v-1v-1v-1v-1v-1v-1l-1 -1v-1v-1v-1v-1v-1
v-1v-1v-1v-1l-1 -1v-1v-1v-1v-1v-1v-1v-1v-1v-1l-1 -1v-1v-1v-1v-1v-1v-1v-1v-1v-1l-1 -1v-1v-1v-1v-1v-1v-1v-1v-1l-1 -1v-1v-1v-1v-1v-1v-1v-1v-1v-1l-1 -1v-1v-1v-1v-1v-1v-1v-1v-1v-1l-1 -1v-1v-1v-1v-1v-1v-1v-1v-1v-1l-1 -1v-1v-1v-1v-1v-1v-1v-2v-1l-1 -1v-1v-1v-1
v-1v-1v-1v-1v-1v-1l-1 -1v-1v-1v-1v-1v-1v-1v-1l-1 -1v-1v-1v-1v-1v-1v-1v-1v-1v-1l-1 -1v-1v-1v-1v-1v-1v-1v-1v-1v-1l-1 -1v-1v-1v-1v-1v-1v-1v-1v-1v-1l-1 -1v-1v-1v-1v-1v-1v-1v-1v-1v-1l-1 -1v-1v-1v-1v-1v-1v-1v-1v-1l-1 -1v-1v-1v-1v-1v-1v-1v-1v-1v-1l-1 -1v-1v-1
v-1v-1v-1v-1v-1v-1v-1l-1 -1v-1v-1v-1v-1v-1v-1v-1v-1v-1l-1 -1v-1v-1v-1v-1v-1v-1v-1v-1l-1 -1v-1v-1v-1v-1v-1v-1v-1v-1v-1l-1 -1v-1v-1v-1v-2zM644 331q5 46 11.5 112t14.5 139t11 112q30 -19 31 -20q78 -53 119 -141q4 -8 6 -14q1 -3 -2 -5q-22 -22 -90 -87
q-8 -8 -17 -16.5t-20.5 -19.5t-17.5 -17q-30 -28 -43 -40zM819 218q-17 -30 -36 -53q-41 -50 -93 -80l-46 -22q-3 -2 -6 1q-42 45 -120 126q-11 11 -30.5 32t-28.5 30l-3 3q71 -7 363 -37zM569 519q-214 22 -363 37q12 21 13 22q40 61 100 101q29 20 62 33q2 1 4 -1
q18 -19 52 -54q14 -15 55 -57q12 -13 77 -81z" />
    <glyph glyph-name="uniE656" unicode="&#xe656;" 
d="M836 737l15 -7q20 -15 10 -40q-10 -27 -71 -187q-125 -330 -166 -438q-6 -15 -10 -20q-13 -14 -31.5 -10t-23.5 22q-3 8 -13 51q-36 148 -59 246q-1 5 -6 6q-52 12 -149.5 35.5t-141.5 34.5q-19 4 -26 20q0 1 -3 9v8q5 21 27 28q3 2 44 17q426 162 512 194q3 2 84 31h8z
M307 470v-1l4 -1q171 -41 206 -49q23 -6 29 -30q8 -32 50 -206l1 -3l1 1v1v1l1 1v1l1 1v1v1l1 1v1v1l1 1v1l1 1v1v1l1 1v1v1l1 1v1l1 1v1v1l1 1v1v1l1 1v1l1 1v1v1l1 1v1v1l1 1v1l1 1v1v1l1 1v1l1 1v1v1l1 1v1v1l1 1v1l1 1v1v1l1 1v1v1l1 1v1l1 1v1v1l1 1v1v1l1 1v1l1 1v1v1
l1 1v1v1l1 1v1l1 1v1v1l1 1v1l1 1v1v1l1 1v1v1l1 1v1l1 1v1v1l1 1v1v1l1 1v1l1 1v1v1l1 1v1v1l1 1v1l1 1v1v1l1 1v1v1l1 1v1l1 1v1v1l1 1v1l1 1v1v1l1 1v1v1l1 1v1l1 1v1v1l1 1v1v1l1 1v1l1 1v1v1l1 1v1v1l1 1v1l1 1v1v1l1 1v1v1l1 1v1l1 1v1v1l1 1v1l1 1v1v1l1 1v1v1l1 1v1
l1 1v1v1l1 1v1v1l1 1v1l1 1v1v1l1 1v1v1l1 1v1l1 1v1v1l1 1v1v1l1 1v1l1 1v1v1l1 1v1l1 1v1v1l1 1v1v1l1 1v1l1 1v1v1l1 1v1v1l1 1v1l1 1v1v1l1 1v1v1l1 1v1l1 1v1v1l1 1v1v1l1 1v1l1 1v1v1l1 1v1l1 1v1v1l1 1v1v1l1 1v1l1 1v1v1l1 1v1v1l1 1v1l1 1v1v1l1 1v1v1l1 1v1l1 1v1
v1l1 1v1v1l1 1v1l1 1v1v1l1 1v1l1 1v1v1l1 1v1v1l1 1v1l1 1v1v1l1 1v1v1l1 1v1l1 1v1v1l1 1v1v1h1v1l1 1v1v1l1 1v1v1l1 1v1l1 1v1v1l1 1v1l1 1v1v1l1 1v1v1l1 1v1l1 1v1v1l1 1v1v1l1 1v1l1 1v1v1l1 1v1v1l1 1v1l1 1v1v1l1 1v1l1 1v1v1l1 1v1v1l1 1v1l1 1v1v1l1 1v1v1l1 1v1
l1 1v1v1l1 1v1v1l1 1v1l1 1v1v1l1 1v1v1l1 1v1l1 1v1v1l1 1v1l1 1v1v1l1 1v1v1l1 1v1l1 1v1v1l1 1v1v1l1 1v1l1 1v1v1l1 1v1v1l1 1v1l1 1v1v1l1 1v1l1 1v1v1l1 1v1v1l1 1v1l1 1v1v1l1 1v1v1l1 1v1l1 1v1v1l1 1v1v1l1 1v1l1 1v1v1l1 1v1l1 1v1v1l1 1v1v1l1 1v1l1 1v1v1l1 1v1
v1l1 1v1l1 1v1v1l1 1v1v1l1 1v1l1 1v1v1l1 1v1l1 1v1v1l1 1v1v1l1 1v1l1 1v1v1l1 1v1v1z" />
    <glyph glyph-name="uniE657" unicode="&#xe657;" 
d="M541 34h-7h-326q-47 0 -81 27q-32 26 -27 71q10 97 102 163q66 48 157 63q112 18 215 -20q74 -27 121 -77q6 -6 33 -42l3 -8q-12 -4 -13 -4q-12 4 -22 12q-19 15 -35 18q-20 2 -34 -9q-73 -57 -108 -84q-23 -18 -16 -52q4 -15 24 -40q0 -1 14 -18zM428 734
q69 0 117 -48.5t48 -116.5t-48 -116.5t-116 -48.5t-116.5 48.5t-48.5 116.5t48 116.5t116 48.5zM616 33q-13 5 -14 5q-22 13 -49 45q-1 1 -5 5.5t-6 7.5q-17 21 5 36q89 62 101 71q7 5 13 1q14 -8 22 -15q4 -4 14 -17q10 -12 21 -3q43 36 78 99q7 13 12 25q11 24 -14 36
q-23 10 -24 31q0 3 1 7q1 5 16 50l23 69q1 5 8 6q26 6 55 -9.5t43 -44.5l1 -2t1 -3q10 -19 4 -46q-33 -153 -152 -262q-54 -50 -110 -77q-2 -1 -44 -15z" />
    <glyph glyph-name="uniE658" unicode="&#xe658;" 
d="M866 386.5q0 -95.5 -47.5 -177t-129 -128.5t-177 -47t-177 47.5t-128.5 129t-46.5 177t47.5 177t128.5 128.5t177.5 47t177 -47.5t128 -129t47 -177zM641 295q1 1 1 3l-4 8q-17 25 -43 42q-59 38 -135 36q-63 -3 -111 -33q-57 -36 -66 -93q-7 -39 27 -54q17 -8 33 -8h184
h6q-15 20 -16 21q-16 26 8 45q8 6 26.5 20.5t28.5 22.5q17 13 35 1q2 -1 6.5 -4.5t7.5 -4.5q1 -1 12 -2zM563 501.5q0 39.5 -27.5 66.5t-66.5 27t-66.5 -27.5t-27 -66.5t27.5 -66t66 -27q40 -1 67 26.5t27 67zM700 458q-8 1 -10.5 -1t-4.5 -9t-8.5 -26t-9.5 -30
q-4 -11 -1.5 -17t13.5 -11q13 -7 7 -20q-19 -43 -50 -70q-5 -4 -7.5 -3.5t-6.5 5.5q-10 10 -17 16q-2 1 -5.5 1t-5.5 -1q-20 -14 -58 -41q-12 -8 -3 -18q14 -15 34 -34q5 -4 12 -2q16 3 24 8q108 59 142 170q8 24 8 35q-1 18 -17.5 33t-35.5 15z" />
    <glyph glyph-name="uniE659" unicode="&#xe659;" 
d="M513 733q95 0 175.5 -47t127 -127.5t46.5 -175.5t-47 -175.5t-127.5 -127t-175.5 -46.5t-175.5 47t-127 127.5t-46.5 175.5t47 175.5t127.5 127t175.5 46.5zM429 514h97q4 0 4 3v29h-119q3 7 8.5 21t9.5 22h-38q-2 0 -4 -4q-27 -69 -78 -120q-4 -4 0 -7q12 -11 18 -18
q5 -5 10 0q28 30 53 69q3 4 8 5h26q-1 -3 -1 -4q-9 -5 -18 -11q-5 -2 -2 -7q18 -26 30 -44q3 -5 8 -2q13 10 19 13.5t1 8.5q-13 17 -30 41q-1 0 -2 5zM621 514h3h3h89h6v32h-129q11 32 15 43h-35q-5 0 -7 -5q-12 -43 -40 -82q-7 -9 -6.5 -11.5t8.5 -8.5v-1l-1 -1h-20
q-9 1 -14 -6q-5 -6 -15 -16q-47 -44 -118 -77q-10 -5 -29.5 -13t-21.5 -9q-7 -2 -4 -6q2 -3 19 -29q28 14 91 44q0 -14 -1 -15q0 -6 7 -6h62h127q8 0 7 8v14q30 -13 88 -39q17 27 18 29q4 6 3.5 7.5t-7.5 2.5q-86 26 -144 70q-1 1 -32 27q10 8 10 9q12 18 21 33q3 6 10 6h37
zM651 173v8v126q0 8 -8 8h-254h-8v-143h30q6 0 6 6v20h198v-25h36zM622 513q-22 -13 -24 -15q-5 -3 -2 -7q5 -8 16.5 -24t17.5 -25q3 -3 6 -1q12 6 23 14q1 1 1.5 3t0.5 3zM517 444q37 -32 40.5 -34.5t44.5 -30.5h-169q60 47 84 65zM615 282v-50h-198v50h198z" />
    <glyph glyph-name="uniE65A" unicode="&#xe65a;" 
d="M680 316h98q16 0 27 -9t14 -25q1 -2 1 -8v-197q0 -17 -12.5 -29.5t-30.5 -12.5h-196q-19 0 -30.5 12t-11.5 31v196q0 16 9 27t24 14q3 1 10 1h98zM304 36h-98q-16 0 -27 9.5t-14 24.5v8v195q0 19 11.5 30.5t29.5 11.5h196q18 0 29.5 -11.5t11.5 -30.5v-195
q0 -18 -11.5 -30t-29.5 -12h-98zM165 551v97q0 21 16 34q11 8 24 8h51h146q25 0 37 -23q4 -8 4 -19v-195q0 -18 -11.5 -29.5t-30.5 -11.5h-194q-18 0 -30 11.5t-12 30.5v97zM859 556q0 -13 -12 -25q-98 -98 -131 -130q-12 -12 -27 -12t-27 12q-60 59 -131 131q-21 20 -7 46
q3 4 7 9q58 57 130 129q21 22 47 8q4 -3 9 -8q12 -12 130 -129q12 -13 12 -31z" />
    </font>
</defs>
</svg>
